<svg data-v-fde0c5aa="" xmlns="http://www.w3.org/2000/svg" viewBox="0 0 300 300" class="iconLeftSlogan"><!----><defs data-v-fde0c5aa=""><linearGradient data-v-fde0c5aa="" gradientTransform="rotate(25)" id="c6727c54-f330-4fd7-aa46-3ee15a0dee8e" x1="0%" y1="0%" x2="100%" y2="0%"><stop data-v-fde0c5aa="" offset="0%" stop-color="#4B279B" stop-opacity="1"></stop><stop data-v-fde0c5aa="" offset="100%" stop-color="#DF99D8" stop-opacity="1"></stop></linearGradient></defs><rect data-v-fde0c5aa="" fill="url(#c6727c54-f330-4fd7-aa46-3ee15a0dee8e)" x="0" y="0" width="300px" height="300px" class="logo-background-square"></rect><defs data-v-fde0c5aa=""><!----></defs><g data-v-fde0c5aa="" id="1cd165ce-1dcc-4495-9a88-40e46e256ad0" fill="#ffffff" transform="matrix(1.6627522121166447,0,0,1.6627522121166447,92.04539599761453,124.5530312200033)"><path d="M5.50 9.96L5.50 9.96Q5.03 10.22 4.52 10.35L4.52 10.35L4.52 10.35Q4.00 10.48 3.64 10.48L3.64 10.48L3.64 10.48Q3.27 10.48 3.08 10.47L3.08 10.47L3.08 10.47Q3.08 10.85 3.09 11.21L3.09 11.21L3.09 11.21Q3.09 11.57 3.03 11.91L3.03 11.91L3.03 11.91Q2.89 12.66 2.35 13.15L2.35 13.15L4.50 13.14L4.50 13.14Q4.41 13.16 4.24 13.31L4.24 13.31L4.24 13.31Q4.07 13.46 3.87 13.63L3.87 13.63L3.87 13.63Q3.36 14.08 3.18 14.08L3.18 14.08L1.01 14.08L1.01 14.08Q1.48 13.65 1.60 13.36L1.60 13.36L1.60 13.36Q1.75 12.95 1.75 12.25L1.75 12.25L1.75 5.17L0.18 5.17L0.18 5.17Q1.26 4.25 1.50 4.25L1.50 4.25L5.17 4.25L5.17 4.25Q6.38 4.25 7.21 4.84L7.21 4.84L7.21 4.84Q8.13 5.50 8.13 6.68L8.13 6.68L8.13 6.68Q8.13 7.75 7.29 8.65L7.29 8.65L7.29 8.65Q6.71 9.28 5.50 9.96L5.50 9.96ZM6.81 7.57L6.81 7.57L6.81 7.57Q6.81 5.17 3.38 5.17L3.38 5.17L3.08 5.17L3.08 9.22L3.08 9.22Q3.34 9.24 3.78 9.35L3.78 9.35L3.78 9.35Q4.57 9.54 5.01 9.54L5.01 9.54L5.01 9.54Q5.46 9.54 5.81 9.43L5.81 9.43L5.81 9.43Q6.17 9.32 6.38 9.08L6.38 9.08L6.38 9.08Q6.81 8.63 6.81 7.57ZM11.40 5.17L11.40 11.98L11.40 11.98Q11.40 12.74 10.86 13.15L10.86 13.15L14.72 13.15L14.72 13.15Q15.27 13.15 15.56 13.02L15.56 13.02L15.56 13.02Q15.84 12.89 15.98 12.78L15.98 12.78L15.98 12.78Q15.16 13.79 14.23 14.03L14.23 14.03L14.23 14.03Q14.03 14.08 13.82 14.08L13.82 14.08L9.39 14.08L9.39 14.08Q9.77 13.71 9.88 13.47L9.88 13.47L9.88 13.47Q10.07 13.03 10.07 12.45L10.07 12.45L10.07 5.17L8.79 5.17L9.05 4.96L9.05 4.96Q9.93 4.25 10.12 4.25L10.12 4.25L13.23 4.25L13.23 4.25Q13.16 4.25 12.82 4.54L12.82 4.54L12.82 4.54Q12.49 4.83 12.36 4.94L12.36 4.94L12.36 4.94Q12.04 5.17 11.91 5.17L11.91 5.17L11.40 5.17ZM17.14 13.16L17.14 13.16L17.14 13.16Q17.19 13.15 17.68 13.15L17.68 13.15L17.68 13.15Q18.54 13.15 18.95 13.02L18.95 13.02L18.95 13.02Q19.35 12.89 19.53 12.78L19.53 12.78L19.53 12.78Q19.28 12.97 19.07 13.14L19.07 13.14L19.07 13.14Q18.61 13.49 18.33 13.65L18.33 13.65L18.33 13.65Q18.05 13.81 17.78 13.89L17.78 13.89L17.78 13.89Q17.51 13.98 17.22 14.02L17.22 14.02L17.22 14.02Q16.80 14.08 16.06 14.08L16.06 14.08L15.80 14.08L15.80 14.08Q15.80 14.08 15.81 14.07L15.81 14.07L15.81 14.07Q15.81 14.06 15.90 13.96L15.90 13.96L15.90 13.96Q16.00 13.86 16.17 13.66L16.17 13.66L16.17 13.66Q16.35 13.47 16.65 13.08L16.65 13.08L16.65 13.08Q16.94 12.69 17.28 12.07L17.28 12.07L17.28 12.07Q17.63 11.46 17.93 10.82L17.93 10.82L17.93 10.82Q18.22 10.18 18.50 9.52L18.50 9.52L18.50 9.52Q18.77 8.87 19.06 8.21L19.06 8.21L19.06 8.21Q19.35 7.55 19.65 6.87L19.65 6.87L19.65 6.87Q19.95 6.20 20.11 5.82L20.11 5.82L20.11 5.82Q20.26 5.43 20.29 5.34L20.29 5.34L20.29 5.34Q20.31 5.24 20.36 5.17L20.36 5.17L19.84 5.17L19.84 5.17Q18.57 5.17 17.87 5.46L17.87 5.46L17.87 5.46Q18.81 4.64 19.45 4.43L19.45 4.43L19.45 4.43Q20.03 4.25 21.33 4.25L21.33 4.25L21.70 4.25L21.70 4.25Q21.99 5.22 22.29 6.23L22.29 6.23L22.29 6.23Q22.59 7.23 22.89 8.24L22.89 8.24L22.89 8.24Q23.54 10.42 23.87 11.41L23.87 11.41L23.87 11.41Q24.21 12.39 24.26 12.58L24.26 12.58L24.26 12.58Q24.32 12.77 24.41 12.92L24.41 12.92L24.41 12.92Q24.61 13.25 25.05 13.25L25.05 13.25L25.05 13.25Q25.29 13.25 25.55 13.14L25.55 13.14L25.55 13.14Q25.81 13.03 25.96 12.94L25.96 12.94L25.96 12.94Q25.71 13.13 25.52 13.28L25.52 13.28L25.52 13.28Q25.03 13.65 24.89 13.74L24.89 13.74L24.89 13.74Q24.75 13.82 24.62 13.90L24.62 13.90L24.62 13.90Q24.48 13.99 24.33 14.05L24.33 14.05L24.33 14.05Q23.37 14.48 23.04 13.73L23.04 13.73L23.04 13.73Q22.80 13.21 22.46 12.05L22.46 12.05L22.46 12.05Q22.13 10.89 21.87 10.08L21.87 10.08L21.87 10.08Q21.29 10.49 19.37 10.46L19.37 10.46L19.37 10.46Q19.12 10.46 18.94 10.46L18.94 10.46L18.94 10.46Q18.17 12.00 17.44 12.82L17.44 12.82L17.44 12.82Q17.38 12.89 17.32 12.96L17.32 12.96L17.32 12.96Q17.14 13.17 17.14 13.16ZM19.48 9.51L19.48 9.51L20.83 9.54L20.83 9.54Q21.25 9.54 21.69 9.51L21.69 9.51L21.69 9.51Q21.38 8.51 20.75 6.45L20.75 6.45L20.75 6.45Q20.08 8.00 19.38 9.53L19.38 9.53L19.38 9.53Q19.46 9.51 19.48 9.51ZM34.00 4.10L34.00 4.10L34.00 4.10Q34.50 4.23 34.63 4.29L34.63 4.29L34.63 4.29Q34.77 4.35 34.77 4.41L34.77 4.41L34.77 4.41Q34.77 4.47 34.66 4.57L34.66 4.57L34.66 4.57Q34.55 4.68 34.38 4.80L34.38 4.80L34.38 4.80Q34.22 4.93 34.02 5.07L34.02 5.07L34.02 5.07Q33.82 5.22 33.65 5.33L33.65 5.33L33.65 5.33Q33.22 5.61 33.14 5.64L33.14 5.64L33.14 5.64Q33.15 5.61 33.24 5.54L33.24 5.54L33.24 5.54Q33.42 5.39 33.42 5.36L33.42 5.36L33.42 5.36Q33.42 5.32 33.39 5.29L33.39 5.29L33.39 5.29Q33.36 5.27 33.32 5.25L33.32 5.25L33.32 5.25Q33.28 5.24 33.25 5.22L33.25 5.22L33.25 5.22Q33.22 5.21 32.99 5.13L32.99 5.13L32.99 5.13Q32.45 4.92 31.44 4.92L31.44 4.92L31.44 4.92Q30.43 4.92 29.69 5.15L29.69 5.15L29.69 5.15Q28.96 5.39 28.44 5.87L28.44 5.87L28.44 5.87Q27.38 6.86 27.38 8.75L27.38 8.75L27.38 8.75Q27.38 10.67 28.44 12.00L28.44 12.00L28.44 12.00Q29.57 13.42 31.42 13.42L31.42 13.42L31.42 13.42Q32.64 13.42 34.42 12.64L34.42 12.64L34.42 12.64Q34.36 12.69 34.32 12.73L34.32 12.73L34.32 12.73Q34.25 12.80 34.15 12.89L34.15 12.89L34.15 12.89Q32.16 14.38 30.02 14.38L30.02 14.38L30.02 14.38Q28.18 14.38 27.08 12.99L27.08 12.99L27.08 12.99Q26.07 11.70 26.07 9.78L26.07 9.78L26.07 9.78Q26.07 8.80 26.36 8.12L26.36 8.12L26.36 8.12Q26.65 7.44 27.04 6.90L27.04 6.90L27.04 6.90Q27.43 6.37 27.92 5.92L27.92 5.92L27.92 5.92Q28.42 5.47 28.99 5.11L28.99 5.11L28.99 5.11Q29.57 4.75 30.19 4.50L30.19 4.50L30.19 4.50Q31.47 3.98 32.77 3.98L32.77 3.98L32.77 3.98Q33.50 3.98 34.00 4.10ZM36.63 5.17L35.35 5.17L35.35 5.17Q36.48 4.25 36.67 4.25L36.67 4.25L42.32 4.25L42.32 4.25Q42.25 4.25 41.88 4.57L41.88 4.57L41.88 4.57Q41.51 4.89 41.31 5.03L41.31 5.03L41.31 5.03Q41.12 5.17 41.00 5.17L41.00 5.17L37.96 5.17L37.96 8.49L41.28 8.49L41.28 8.49Q41.20 8.50 41.03 8.64L41.03 8.64L41.03 8.64Q40.86 8.79 40.65 8.96L40.65 8.96L40.65 8.96Q40.11 9.42 39.94 9.42L39.94 9.42L37.96 9.42L37.96 11.65L37.96 11.65Q37.96 12.41 37.73 12.89L37.73 12.89L37.73 12.89Q37.64 13.08 37.50 13.15L37.50 13.15L41.30 13.15L41.30 13.15Q41.69 13.15 42.10 12.97L42.10 12.97L42.53 12.80L42.53 12.80Q42.18 13.21 41.04 13.82L41.04 13.82L41.04 13.82Q40.54 14.08 40.37 14.08L40.37 14.08L36.01 14.08L36.01 14.08Q36.63 13.25 36.63 12.45L36.63 12.45L36.63 9.42L35.67 9.42L35.67 9.42Q36.26 8.94 36.63 8.67L36.63 8.67L36.63 5.17ZM45.96 5.17L42.38 5.17L42.38 5.17Q43.52 4.25 43.71 4.25L43.71 4.25L51.42 4.25L51.42 4.25Q51.33 4.26 51.00 4.55L51.00 4.55L51.00 4.55Q50.67 4.83 50.54 4.94L50.54 4.94L50.54 4.94Q50.23 5.17 50.09 5.17L50.09 5.17L47.29 5.17L47.29 11.43L47.29 11.43Q47.29 12.26 47.01 12.80L47.01 12.80L47.01 12.80Q46.89 13.03 46.74 13.15L46.74 13.15L48.99 13.15L48.99 13.15Q48.90 13.17 48.57 13.45L48.57 13.45L48.57 13.45Q48.24 13.74 48.11 13.84L48.11 13.84L48.11 13.84Q47.80 14.08 47.66 14.08L47.66 14.08L45.28 14.08L45.28 14.08Q45.69 13.71 45.79 13.46L45.79 13.46L45.79 13.46Q45.96 13.06 45.96 12.45L45.96 12.45L45.96 5.17ZM61.60 8.38L61.60 8.38L61.60 8.38Q61.60 9.08 61.36 9.85L61.36 9.85L61.36 9.85Q61.12 10.62 60.70 11.32L60.70 11.32L60.70 11.32Q60.28 12.02 59.70 12.63L59.70 12.63L59.70 12.63Q59.12 13.24 58.43 13.69L58.43 13.69L58.43 13.69Q56.97 14.64 55.45 14.64L55.45 14.64L55.45 14.64Q53.29 14.64 52.04 13.38L52.04 13.38L52.04 13.38Q50.77 12.13 50.77 9.99L50.77 9.99L50.77 9.99Q50.77 8.37 51.67 6.95L51.67 6.95L51.67 6.95Q52.51 5.58 53.94 4.77L53.94 4.77L53.94 4.77Q55.38 3.94 57.00 3.94L57.00 3.94L57.00 3.94Q58.88 3.94 60.22 5.18L60.22 5.18L60.22 5.18Q61.60 6.45 61.60 8.38ZM60.27 9.47L60.27 9.47L60.27 9.47Q60.27 8.52 59.93 7.66L59.93 7.66L59.93 7.66Q59.60 6.79 58.99 6.18L58.99 6.18L58.99 6.18Q57.72 4.90 55.61 4.90L55.61 4.90L55.61 4.90Q52.86 4.90 52.28 7.22L52.28 7.22L52.28 7.22Q52.10 7.95 52.10 8.96L52.10 8.96L52.10 8.96Q52.10 9.96 52.41 10.86L52.41 10.86L52.41 10.86Q52.73 11.76 53.33 12.40L53.33 12.40L53.33 12.40Q54.58 13.73 56.80 13.73L56.80 13.73L56.80 13.73Q58.57 13.73 59.47 12.50L59.47 12.50L59.47 12.50Q60.27 11.42 60.27 9.47ZM67.60 9.96L67.60 9.96Q67.13 10.22 66.61 10.35L66.61 10.35L66.61 10.35Q66.10 10.48 65.73 10.48L65.73 10.48L65.73 10.48Q65.37 10.48 65.18 10.47L65.18 10.47L65.18 10.47Q65.18 10.85 65.18 11.21L65.18 11.21L65.18 11.21Q65.19 11.57 65.13 11.91L65.13 11.91L65.13 11.91Q64.99 12.66 64.45 13.15L64.45 13.15L66.60 13.14L66.60 13.14Q66.51 13.16 66.34 13.31L66.34 13.31L66.34 13.31Q66.17 13.46 65.97 13.63L65.97 13.63L65.97 13.63Q65.45 14.08 65.28 14.08L65.28 14.08L63.11 14.08L63.11 14.08Q63.58 13.65 63.70 13.36L63.70 13.36L63.70 13.36Q63.85 12.95 63.85 12.25L63.85 12.25L63.85 5.17L62.28 5.17L62.28 5.17Q63.36 4.25 63.60 4.25L63.60 4.25L67.27 4.25L67.27 4.25Q68.48 4.25 69.31 4.84L69.31 4.84L69.31 4.84Q70.23 5.50 70.23 6.68L70.23 6.68L70.23 6.68Q70.23 7.75 69.38 8.65L69.38 8.65L69.38 8.65Q68.81 9.28 67.60 9.96L67.60 9.96ZM68.91 7.57L68.91 7.57L68.91 7.57Q68.91 5.17 65.47 5.17L65.47 5.17L65.18 5.17L65.18 9.22L65.18 9.22Q65.43 9.24 65.88 9.35L65.88 9.35L65.88 9.35Q66.66 9.54 67.11 9.54L67.11 9.54L67.11 9.54Q67.56 9.54 67.91 9.43L67.91 9.43L67.91 9.43Q68.26 9.32 68.48 9.08L68.48 9.08L68.48 9.08Q68.91 8.63 68.91 7.57ZM71.00 13.16L71.00 13.16L71.00 13.16Q71.05 13.15 71.54 13.15L71.54 13.15L71.54 13.15Q72.40 13.15 72.81 13.02L72.81 13.02L72.81 13.02Q73.21 12.89 73.39 12.78L73.39 12.78L73.39 12.78Q73.14 12.97 72.93 13.14L72.93 13.14L72.93 13.14Q72.47 13.49 72.19 13.65L72.19 13.65L72.19 13.65Q71.91 13.81 71.64 13.89L71.64 13.89L71.64 13.89Q71.37 13.98 71.08 14.02L71.08 14.02L71.08 14.02Q70.66 14.08 69.92 14.08L69.92 14.08L69.66 14.08L69.66 14.08Q69.67 14.08 69.67 14.07L69.67 14.07L69.67 14.07Q69.67 14.06 69.76 13.96L69.76 13.96L69.76 13.96Q69.86 13.86 70.03 13.66L70.03 13.66L70.03 13.66Q70.21 13.47 70.51 13.08L70.51 13.08L70.51 13.08Q70.80 12.69 71.15 12.07L71.15 12.07L71.15 12.07Q71.49 11.46 71.79 10.82L71.79 10.82L71.79 10.82Q72.08 10.18 72.36 9.52L72.36 9.52L72.36 9.52Q72.63 8.87 72.92 8.21L72.92 8.21L72.92 8.21Q73.21 7.55 73.51 6.87L73.51 6.87L73.51 6.87Q73.81 6.20 73.97 5.82L73.97 5.82L73.97 5.82Q74.12 5.43 74.15 5.34L74.15 5.34L74.15 5.34Q74.17 5.24 74.22 5.17L74.22 5.17L73.71 5.17L73.71 5.17Q72.43 5.17 71.73 5.46L71.73 5.46L71.73 5.46Q72.67 4.64 73.31 4.43L73.31 4.43L73.31 4.43Q73.89 4.25 75.20 4.25L75.20 4.25L75.56 4.25L75.56 4.25Q75.85 5.22 76.15 6.23L76.15 6.23L76.15 6.23Q76.45 7.23 76.75 8.24L76.75 8.24L76.75 8.24Q77.40 10.42 77.73 11.41L77.73 11.41L77.73 11.41Q78.07 12.39 78.12 12.58L78.12 12.58L78.12 12.58Q78.18 12.77 78.27 12.92L78.27 12.92L78.27 12.92Q78.47 13.25 78.91 13.25L78.91 13.25L78.91 13.25Q79.15 13.25 79.41 13.14L79.41 13.14L79.41 13.14Q79.67 13.03 79.82 12.94L79.82 12.94L79.82 12.94Q79.57 13.13 79.38 13.28L79.38 13.28L79.38 13.28Q78.89 13.65 78.75 13.74L78.75 13.74L78.75 13.74Q78.61 13.82 78.48 13.90L78.48 13.90L78.48 13.90Q78.34 13.99 78.19 14.05L78.19 14.05L78.19 14.05Q77.23 14.48 76.90 13.73L76.90 13.73L76.90 13.73Q76.66 13.21 76.32 12.05L76.32 12.05L76.32 12.05Q75.99 10.89 75.73 10.08L75.73 10.08L75.73 10.08Q75.15 10.49 73.23 10.46L73.23 10.46L73.23 10.46Q72.98 10.46 72.80 10.46L72.80 10.46L72.80 10.46Q72.03 12.00 71.30 12.82L71.30 12.82L71.30 12.82Q71.24 12.89 71.18 12.96L71.18 12.96L71.18 12.96Q71.00 13.17 71.00 13.16ZM73.34 9.51L73.34 9.51L74.69 9.54L74.69 9.54Q75.11 9.54 75.55 9.51L75.55 9.51L75.55 9.51Q75.24 8.51 74.61 6.45L74.61 6.45L74.61 6.45Q73.94 8.00 73.24 9.53L73.24 9.53L73.24 9.53Q73.32 9.51 73.34 9.51ZM81.04 4.25L84.35 4.25L84.35 4.25Q87.51 4.25 87.51 6.30L87.51 6.30L87.51 6.30Q87.51 7.30 86.66 8.16L86.66 8.16L86.66 8.16Q85.99 8.84 84.92 9.35L84.92 9.35L84.92 9.35Q85.46 9.56 85.98 10.14L85.98 10.14L85.98 10.14Q86.12 10.30 86.28 10.47L86.28 10.47L88.05 12.44L88.05 12.44Q88.52 12.97 88.73 13.07L88.73 13.07L88.73 13.07Q88.94 13.17 89.07 13.17L89.07 13.17L89.07 13.17Q89.39 13.17 89.73 12.95L89.73 12.95L89.73 12.95Q88.91 14.12 87.69 14.12L87.69 14.12L87.69 14.12Q87.38 14.12 87.08 13.77L87.08 13.77L87.08 13.77Q87.01 13.68 86.93 13.59L86.93 13.59L85.10 11.57L85.10 11.57Q84.71 11.14 84.44 10.85L84.44 10.85L84.44 10.85Q84.16 10.56 83.90 10.38L83.90 10.38L83.90 10.38Q83.39 10.05 82.52 10.05L82.52 10.05L82.52 11.43L82.52 11.43Q82.52 12.10 82.46 12.33L82.46 12.33L82.46 12.33Q82.37 12.66 82.03 13.15L82.03 13.15L84.22 13.15L84.22 13.15Q84.13 13.17 83.94 13.34L83.94 13.34L83.94 13.34Q83.74 13.51 83.60 13.63L83.60 13.63L83.60 13.63Q83.47 13.75 83.34 13.85L83.34 13.85L83.34 13.85Q83.03 14.08 82.89 14.08L82.89 14.08L80.64 14.08L80.64 14.08Q81.19 13.48 81.19 12.45L81.19 12.45L81.19 5.17L79.71 5.17L79.97 4.96L79.97 4.96Q80.85 4.25 81.04 4.25L81.04 4.25ZM86.18 7.29L86.18 7.29L86.18 7.29Q86.18 6.71 85.93 6.30L85.93 6.30L85.93 6.30Q85.67 5.90 85.27 5.65L85.27 5.65L85.27 5.65Q84.52 5.17 83.36 5.17L83.36 5.17L82.52 5.17L82.52 9.09L83.58 9.09L83.58 9.09Q84.81 9.09 85.39 8.78L85.39 8.78L85.39 8.78Q86.18 8.37 86.18 7.29ZM97.92 5.17L96.91 5.17L96.91 5.17Q96.06 6.09 93.86 8.14L93.86 8.14L93.86 8.14Q97.88 12.11 98.72 12.70L98.72 12.70L98.72 12.70Q99.37 13.17 99.98 13.17L99.98 13.17L99.98 13.17Q100.30 13.17 101.01 12.84L101.01 12.84L101.01 12.84Q100.63 13.21 100.33 13.41L100.33 13.41L100.33 13.41Q100.03 13.60 99.83 13.72L99.83 13.72L99.83 13.72Q99.62 13.83 99.40 13.92L99.40 13.92L99.40 13.92Q98.56 14.26 97.97 14.01L97.97 14.01L97.97 14.01Q97.53 13.82 97.17 13.50L97.17 13.50L97.17 13.50Q96.80 13.17 96.57 12.97L96.57 12.97L96.57 12.97Q96.34 12.76 96.02 12.47L96.02 12.47L96.02 12.47Q95.70 12.18 95.35 11.87L95.35 11.87L95.35 11.87Q94.70 11.26 93.96 10.56L93.96 10.56L93.96 10.56Q93.23 9.86 92.44 9.11L92.44 9.11L92.44 9.11Q95.74 5.95 96.41 5.17L96.41 5.17L95.22 5.17L95.22 5.17Q95.69 4.75 96.08 4.50L96.08 4.50L96.08 4.50Q96.46 4.25 96.54 4.25L96.54 4.25L99.26 4.25L99.26 4.25Q99.13 4.27 98.81 4.56L98.81 4.56L98.81 4.56Q98.49 4.85 98.37 4.95L98.37 4.95L98.37 4.95Q98.08 5.17 97.92 5.17L97.92 5.17ZM92.67 14.08L90.36 14.08L90.36 14.08Q90.97 13.45 90.97 11.70L90.97 11.70L90.97 5.17L89.69 5.17L89.96 4.96L89.96 4.96Q90.83 4.25 91.02 4.25L91.02 4.25L94.14 4.25L94.14 4.25Q94.06 4.25 93.69 4.57L93.69 4.57L93.69 4.57Q93.32 4.89 93.13 5.03L93.13 5.03L93.13 5.03Q92.93 5.17 92.81 5.17L92.81 5.17L92.31 5.17L92.31 11.43L92.31 11.43Q92.31 12.08 92.24 12.31L92.24 12.31L92.24 12.31Q92.15 12.67 91.81 13.15L91.81 13.15L94.01 13.15L94.01 13.15Q93.91 13.17 93.58 13.45L93.58 13.45L93.58 13.45Q93.26 13.74 93.12 13.84L93.12 13.84L93.12 13.84Q92.81 14.08 92.67 14.08L92.67 14.08Z"></path></g><defs data-v-fde0c5aa=""><!----></defs><g data-v-fde0c5aa="" id="65331271-ee86-48b8-9e78-b3e7fad7b2cc" stroke="none" fill="#ffffff" transform="matrix(0.42388161535279967,0,0,0.42388161535279967,38.49225302627693,128.0280948350378)"><path d="M85.571 95.318h2.161v2.197h-2.161zM89.895 95.318h2.16v2.197h-2.16zM83.41 97.516h.055v-2.198H81.25v2.198h.054zM79.09 97.516h.053v-2.198h-2.214v2.198h.053zM74.768 97.516h.052v-2.198h-2.213v2.198h.053zM70.447 97.516h.051v-2.198h-2.213v2.198h.054zM33.765 97.521h2.201v-.005h.004v-2.198h-2.214v2.198h.009zM96.377 63.027v-2.154h-2.196v2.182h2.196zM96.377 67.336v-2.154h-2.196v2.179h2.196zM96.377 58.719v-2.155h-2.196v2.182h2.196zM96.377 71.645V69.49h-2.196V71.67h2.196zM96.377 54.41v-2.154h-2.196V54.436h2.196zM96.377 50.102V47.949h-2.196V50.129h2.196zM96.377 75.951V73.799h-2.196V75.979h2.196zM96.377 88.877v-2.154h-2.196v2.181h2.196zM96.377 84.57v-2.154h-2.196V84.596h2.196zM96.377 80.26V78.107h-2.196V80.287h2.196zM96.377 97.516V95.318h-2.161v.022h-.035v2.181h2.196zM96.377 93.186v-2.155h-2.196v2.182h2.196zM7.878 95.318h2.16v2.197h-2.16zM12.2 95.318h2.16v2.197H12.2zM55.373 97.516h2.16v-2.198H55.32v2.198h.043zM59.695 97.516h2.16v-2.198h-2.213v2.198h.045zM51.052 97.516h2.205v-2.198h-2.259v2.198h.044zM46.729 97.516h2.206v-2.198h-2.259v2.198h.045zM42.452 97.516h2.16v-2.198h-2.213v2.198h.009zM38.131 97.516H40.29v-2.198h-2.213v2.198h.009zM22.952 97.516h.053v-2.198H20.79v2.198h.054zM18.63 97.516h.053v-2.198h-2.215v2.198h.053zM31.595 97.516h.052v-2.198h-2.213v2.198h.053zM27.272 97.516h.053v-2.198h-2.213v2.198h.053zM35.961 71.67h.005V69.49h-2.201V71.67h.004zM35.961 67.361h.005v-2.179h-2.201v2.179h.004zM35.961 75.979h.005V73.799h-2.201V75.979h.004zM35.961 84.596h.005V82.416h-2.201V84.596h.004zM35.961 80.287h.005V78.107h-2.201V80.287h.004zM35.961 50.129h.005V47.949h-2.201V50.129h.004zM35.961 63.055h.005v-2.182h-2.201v2.182h.004zM35.961 58.746h.005v-2.182h-2.201v2.182h.004zM35.961 54.436h.005V52.256h-2.201V54.436h.004zM35.961 88.904h.005v-2.181h-2.201v2.181h.004zM35.961 93.213h.005v-2.182h-2.201v2.182h.004zM5.753 54.41v-2.154H3.557V54.436h2.196zM5.753 58.719v-2.155H3.557v2.182h2.196zM5.753 63.027v-2.154H3.557v2.182h2.196zM5.753 50.102V47.949H3.557V50.129h2.196zM5.753 67.336v-2.154H3.557v2.179h2.196zM5.753 71.645V69.49H3.557V71.67h2.196zM5.753 75.951V73.799H3.557V75.979h2.196zM5.753 84.57v-2.154H3.557V84.596h2.196zM5.753 93.186v-2.155H3.557v2.182h2.196zM5.753 88.877v-2.154H3.557v2.181h2.196zM5.753 80.26V78.107H3.557V80.287h2.196zM5.753 97.521V95.34h-.035v-.022H3.557v2.203zM66.169 63.055h.005v-2.182h-2.201v2.182h.004zM66.169 67.361h.005v-2.179h-2.201v2.179h.004zM66.169 58.746h.005v-2.182h-2.201v2.182h.004zM66.169 71.67h.005V69.49h-2.201V71.67h.004zM66.169 54.436h.005V52.256h-2.201V54.436h.004zM66.169 50.129h.005V47.949h-2.201V50.129h.004zM66.169 75.979h.005V73.799h-2.201V75.979h.004zM66.169 88.904h.005v-2.181h-2.201v2.181h.004zM66.169 84.596h.005V82.416h-2.201V84.596h.004zM66.169 80.287h.005V78.107h-2.201V80.287h.004zM63.973 97.521h2.201v-.005h.004v-2.198h-2.214v2.198h.009zM66.169 93.213h.005v-2.182h-2.201v2.182h.004zM57.116 68.235c0-2.047-.557-3.572-1.656-4.535-1.109-.971-2.623-1.463-4.504-1.463h-8.205v19.184h3.636v-7.057h4.304c2.072 0 3.682-.467 4.781-1.387 1.091-.91 1.644-2.505 1.644-4.742zm-4.486 2.426c-.558.506-1.342.762-2.33.762h-3.913v-6.217H50.3c.986 0 1.768.234 2.325.703.567.475.856 1.268.856 2.352 0 1.082-.286 1.888-.851 2.4zM80.174 49.914a.06.06 0 0 0-.017-.004c-.022 0-2.244-.053-3.516.408-.856.309-2.632 1.322-3.857 3.172a1.908 1.908 0 0 1-.278.309c-.127.123-.258.246-.347.438-.112.244-.244.77-.331 1.117-.021.08-.037.152-.053.211-.301 1.148-.262 3.604-.248 4.41l.003.234c0 .16.034.33.078.545.063.311.141.693.15 1.236v5.238c-.138.109-.85.691-1.144 1.115-.328.475-.229.682-.149.85l.007.012a.06.06 0 0 0 .07.031l1.279-.312c.031.865.333 9.227.133 11.275.009.307-.018.393-.053.512-.037.127-.082.281-.114.734-.062.916-.013 1.887.138 2.73.102.564.261.746.415.924.086.096.166.188.243.344.09.182.269.658.472 1.209.305.818.683 1.836.956 2.371.43.842.569 1.07.842 1.158.041.232.329.82.485 1.023.238.309 2.793 1.131 4.815 1.131a.065.065 0 0 0 .02-.004c.006.002.011.004.018.004 2.021 0 4.578-.822 4.816-1.131.157-.203.444-.791.486-1.023.271-.088.411-.316.841-1.158.273-.535.651-1.553.956-2.371.204-.551.382-1.027.472-1.209.078-.156.157-.248.242-.344.155-.178.314-.359.416-.924.15-.844.199-1.814.138-2.73-.031-.453-.077-.607-.114-.734-.035-.119-.061-.203-.053-.518-.201-2.043.102-10.404.134-11.27l1.278.312c.027.008.059-.006.069-.031l.007-.012c.038-.08.08-.166.08-.285 0-.137-.053-.312-.228-.564-.295-.424-1.008-1.006-1.144-1.115v-5.236c.009-.545.086-.928.149-1.238.043-.215.077-.385.077-.545 0-.047.002-.127.005-.234.012-.807.053-3.262-.249-4.41-.015-.059-.032-.131-.054-.211-.087-.348-.219-.873-.33-1.117-.088-.191-.22-.314-.347-.438a1.738 1.738 0 0 1-.278-.309c-1.227-1.85-3.001-2.863-3.858-3.172-1.271-.461-3.492-.408-3.515-.408a.058.058 0 0 0-.013.004zm-6.053 32.277c-.28-.797-1.113-6.078-1.255-7.727-.141-1.65 0-8.074 0-7.979 0 .094 1.52 5.256 1.64 6.924.122 1.668.062 7.881 0 8.973 0 .001-.02.845-.385-.191zm9.457 5.155c-.183.791-.669 1.207-1.307 1.494-.588.268-2.08.289-2.08.289s-1.528-.021-2.116-.289c-.638-.287-1.124-.703-1.307-1.494 0 0-.653-4.07-.653-4.775s.152-.805.745-.805 2.417.115 3.321.115c.903 0 2.712-.115 3.305-.115.592 0 .745.1.745.805s-.653 4.775-.653 4.775zm3.901-12.881c-.141 1.648-.974 6.93-1.255 7.727-.364 1.035-.385.191-.385.191-.061-1.092-.121-7.305 0-8.973s1.64-6.83 1.64-6.924c0-.095.142 6.328 0 7.979zM80.165 62.73c6.917.02 7.253 2.184 7.234 2.203-.203.729-1.63 5.656-1.63 5.656s-.111.619-.725.385c-.734-.281-3.929-.676-4.93-.689-.998.014-4.08.408-4.813.689-.613.234-.725-.385-.725-.385s-1.427-4.928-1.629-5.656c-.021-.02.2-2.184 7.116-2.203h.102zm-3.949-5.839c-.033-.084.01-.57.284-1.234.274-.666.548-1.131.779-1.102.153.01-.11.922-.177 1.193-.065.271-.291 1.105-.46 1.143-.22.047-.394.084-.426 0zm7.631-1.235c.273.664.317 1.15.284 1.234s-.207.047-.428 0c-.17-.037-.395-.871-.459-1.143-.066-.271-.33-1.184-.175-1.193.23-.029.503.436.778 1.102zm.882-4.056c1.051.502 2.501 2.189 2.998 2.928.058.088.258.469.032.271-.705-.623-2.348-1.258-2.834-1.643-.221-.176-.685-.654-.849-1.094-.149-.402-.046-.794.653-.462zm-8.458.462c-.163.439-.628.918-.85 1.094-.485.385-2.128 1.02-2.833 1.643-.226.197-.024-.184.033-.271.496-.738 1.946-2.426 2.996-2.928.698-.332.803.06.654.462zM19.795 92.627c4.66-.018 7.537-1.557 7.754-1.676h.4l.015-.037c.012-.029 1.079-2.914 1.305-4.678.149-1.166.048-2.5-.077-4.184-.066-.863-.142-1.844-.187-2.91-.123-2.891-.212-12.721-.208-13.836.523.316 1.607.373 1.658.375l.054.004.005-.059c.009-.088.016-.207-.002-.242-.163-.641-1.525-1.168-1.772-1.26-.011-.166-.046-.807.002-1.199.02-.16.068-.408.123-.695.105-.539.249-1.279.311-1.992.083-.953-.039-1.973-.36-3.031-.268-.875-1.938-4.695-2.059-4.953-.021-.045-.042-.098-.068-.156-.146-.355-.387-.949-1.033-1.293-.703-.379-4.193-1.164-5.859-1.188v-.002l-.038.002-.038-.002v.002c-1.668.023-5.156.809-5.861 1.188-.645.344-.888.938-1.033 1.293-.024.059-.045.111-.066.156-.121.258-1.793 4.078-2.058 4.953-.323 1.059-.444 2.078-.362 3.031.062.713.206 1.453.311 1.992.057.287.105.535.124.695.048.393.014 1.033.002 1.199-.245.092-1.61.617-1.769 1.248-.012.021-.015.062-.015.109s.003.1.008.145l.007.059.054-.004c.048-.002 1.133-.059 1.658-.375.001 1.117-.086 10.945-.209 13.836a91.647 91.647 0 0 1-.185 2.91c-.129 1.686-.229 3.018-.08 4.184.225 1.764 1.293 4.648 1.305 4.678l.015.037h.401c.104.059.828.451 2.064.836 1.214.379 3.182.83 5.689.838v.002H19.795zm-.041-41.416v.002c.02.018.416.369.416.645h-.825c0-.275.387-.627.407-.645v-.002h.002zm-6.4 1.351c.113-.422.283-.684.453-.787.17-.102 1.066-.564 1.066-.564s.404 3.088.385 3.107c-.3.041-2.997 1.656-2.979 1.656.02-.181.962-2.988 1.075-3.412zm10.899 1.756c-.02-.02.387-3.107.387-3.107s.897.463 1.065.564c.169.104.34.365.452.787.115.424 1.057 3.23 1.075 3.412.02.001-2.675-1.615-2.979-1.656zm3.716 22c.057 3.352.133 6.016.133 6.016l-2.02-1.533s.113-6.34.113-7.854 1.32-8.658 1.906-10.211c.001 0-.189 10.233-.132 13.582zM11.94 61.061c.661-.85 3.307-2.381 4.046-2.664.704-.27 2.383-.318 3.667-.322v-.002h.199v.002c1.283.004 2.966.053 3.671.322.742.283 3.389 1.814 4.05 2.664-.021.041-1.703 7.428-1.703 7.428s-2.327-.18-6.117-.182c-3.787.002-6.109.182-6.109.182s-1.683-7.387-1.704-7.428zm-.394 15.257c.056-3.35-.133-13.582-.133-13.582.584 1.553 1.904 8.697 1.904 10.211s.113 7.854.113 7.854l-2.018 1.533c.001 0 .076-2.664.134-6.016zM19.87 88.51c-1.991-.014-4.948-.344-4.948-.344s.084-8.598.106-8.598c.577.311 4.137.307 4.842.303h.121c.677.004 3.966.004 4.502-.303.021 0 .1 8.598.1 8.598s-2.745.328-4.602.344h-.121z"></path><g><path d="M66.135 28.684c1.401 1.025 2.608 1.529 3.587 1.494.729-.043 1.112-.613 1.119-.625.099-.102 10.062-10.334 10.692-11.006 1.532-1.623.881-3.873-1.934-6.688s-5.065-3.467-6.69-1.936c-.669.631-10.9 10.596-10.99 10.686a1.491 1.491 0 0 0-.635 1.129c-.036.977.465 2.184 1.491 3.586.757 1.035 1.534 1.797 1.548 1.812.013.014.777.792 1.812 1.548zm10.958-14.727c.196-.195.448-.266.562-.152.112.113.043.365-.152.562-.198.197-.45.266-.562.152-.115-.113-.045-.365.152-.562z"></path><path d="M60.524 39.939l.235.027c1.332.145 2.384.26 3.912-1.268l5.433-5.434c.072-.072.284-.291.402-.41.34.66.86 1.031 1.407.998.475-.029.862-.361 1.034-.891.038-.119-.114-.246-.743-.682-.237-.164-.554-.385-.636-.48.825-.824 2.037-2.055 3.321-3.357 3.084-3.127 6.921-7.02 8.167-8.131 1.516-1.352 2.251-2.541 2.251-3.637 0-.895-.527-2.922-4.065-6.461-3.537-3.537-5.564-4.064-6.459-4.064-1.098 0-2.288.734-3.639 2.252-1.11 1.244-5.002 5.082-8.131 8.166a688.438 688.438 0 0 0-3.357 3.322c-.095-.082-.315-.4-.481-.639-.434-.627-.561-.781-.68-.74-.23.074-.426.191-.572.338-.189.189-.303.43-.318.695-.033.547.337 1.066.998 1.406l-.411.402-5.433 5.434c-1.528 1.529-1.412 2.58-1.268 3.912l.026.234c.227 2.168 2.942 4.98 3.484 5.523.544.544 3.356 3.259 5.523 3.485zm2.221-.441s-.654.148-1.323.072-1.3-.258-1.3-.258c.062-.602.589-1.068 1.435-.98.846.086 1.251.566 1.188 1.166zm-4.681-1.256a90.764 90.764 0 0 1-1.11-.873c.061.051 3.933-2.711 5.458-3.9-.023-.02.849.615 1.347.887 0-.001-3.733 2.906-5.695 3.886zm-1.13-12.554c-.389-1.441.587-2.463 1.373-3.283l.059-.062c.106-.111.258-.264.446-.453a280.901 280.901 0 0 1 5.919-5.68c2.076-1.924 6.926-6.498 7.849-7.463.89-.928 1.428-1.486 3.152-1.086 1.688.395 4.213 2.494 4.893 3.174s2.78 3.205 3.175 4.893c.4 1.727-.161 2.264-1.087 3.152-.962.924-5.539 5.773-7.462 7.85-1.98 2.137-5.293 5.564-6.134 6.365l-.061.059c-.821.785-1.843 1.762-3.284 1.373-1.574-.426-3.568-1.734-5.336-3.502-1.767-1.769-3.077-3.765-3.502-5.337zm-5.045 4.347c-.076-.668.07-1.322.07-1.322.603-.062 1.08.342 1.168 1.189.088.846-.379 1.373-.979 1.436-.001 0-.183-.631-.259-1.303zm1.329 3.36c.98-1.961 3.886-5.695 3.886-5.695.271.498.906 1.371.887 1.348-1.191 1.525-3.952 5.396-3.902 5.457-.043-.05-.81-1.026-.871-1.11z"></path></g><path d="M15.167 12.375c-1.239 1.492-1.227 3.176-.581 4.832.645 1.656 2.364 3.148 3.451 4.236 1.089 1.088 2.15 1.467 2.15 1.467s1.036 1.176 2.334 2.576c-.019.043-.124.361.278.816.369.418.747.4.851.387l.268.281c1.858 1.934 5.842 5.713 5.866 5.738-.67.215-1.454.873-1.466.887.418.518 1.999.176 1.986.139 1.504 1.91 2.769 3.148 3.553 3.832.783.682 1.923 1.742 4.009 1.631 2.374-.127 4.729-2.127 5.726-3.121l.002-.002.002-.002c.995-.996 2.994-3.352 3.121-5.727.109-2.084-.949-3.225-1.631-4.008-.684-.785-1.923-2.049-3.831-3.553.038.012.378-1.568-.141-1.986-.013.014-.67.797-.886 1.465-.025-.023-3.805-4.008-5.739-5.865l-.277-.266c.014-.1.035-.48-.388-.854-.469-.416-.794-.291-.819-.279-1.399-1.297-2.575-2.332-2.575-2.332s-.379-1.062-1.467-2.15c-1.088-1.086-2.58-2.807-4.237-3.451-1.655-.645-3.338-.66-4.831.58-1.487 1.236-1.707 1.457-2.486 2.236-.001.002-.002.002-.003.002l-.003.004c-.78.78-1 1.001-2.236 2.487zm27.94 22.613c.066.066-.013.256-.177.42-.165.164-.353.242-.419.176s.014-.252.179-.416c.164-.166.351-.246.417-.18zM46 28.721c.229.037.334.557.235 1.162-.099.604-.366 1.064-.594 1.027-.23-.039-.335-.559-.236-1.164.1-.603.366-1.064.595-1.025zm-8.728 9.158c.604-.098 1.125.008 1.163.236.036.229-.423.494-1.027.594s-1.124-.008-1.161-.234c-.038-.231.422-.496 1.025-.596zM20.437 22.711l-2.542-3.25s1.71 1.299 2.937 2.324c1.226 1.023 5.641 5.59 6.563 6.766.858 1.09 3.941 5.061 3.941 5.061-2.696-2.489-10.899-10.901-10.899-10.901zm21.354 2.191l.011.033c.428 1.297.242 2.738-.554 4.279-.688 1.33-1.634 2.33-1.907 2.604-.274.273-1.272 1.219-2.604 1.908-1.541.795-2.981.98-4.279.553l-.031-.012.008-.014c-.144-.213-2.279-3.012-3.416-4.5l-.021-.027.03-.014c.007 0 .555-.246 1.405-.797a20.813 20.813 0 0 0 3.305-2.701 20.632 20.632 0 0 0 2.703-3.307c.55-.852.795-1.396.796-1.404l.014-.029.027.02c1.487 1.139 4.287 3.275 4.498 3.418l.015-.01zM30.236 12.91s8.412 8.203 10.9 10.9c0 0-3.97-3.086-5.062-3.941-1.176-.922-5.739-5.338-6.765-6.564-1.025-1.225-2.323-2.936-2.323-2.936l3.25 2.541zm-6.282-3.574h.007l.006.004 2.039 1.881c.51.471 1.02.939 1.4 1.295.341.316.502.467.578.543.021.02.035.033.043.045l.005.002-.001.002c.021.023.017.029.012.037l-.013.02-.013-.008c-1.347.41-4.112 3.166-4.141 3.195-.028.027-2.784 2.793-3.193 4.141l.005.012-.018.014c-.008.004-.014.008-.038-.012l-.002.002-.002-.006c-.054-.047-.19-.193-.588-.621-.354-.381-.824-.891-1.294-1.4-.94-1.02-1.882-2.039-1.882-2.039l-.003-.008c-.027-.059-.634-1.453 2.3-4.398l.031-.031c.884-.893 3.118-2.94 4.762-2.67zm-5.588 3.078l-.165-.164 1.574-1.574.165.164-1.574 1.574zm3.971-5.328c.5-.146.948-.113 1.005.076.056.189-.304.461-.804.607-.498.148-.949.113-1.005-.076-.055-.187.305-.461.804-.607zm-7.117 6.922c.188.055.224.506.076 1.004-.146.5-.419.861-.608.805-.188-.057-.223-.506-.076-1.006.147-.499.419-.86.608-.803z"></path></g><defs data-v-fde0c5aa=""><!----></defs><g data-v-fde0c5aa="" id="7e9309a5-3632-4912-9cd2-f73138ab7727" fill="#ffffff" transform="matrix(0.3698061452474716,0,0,0.3698061452474716,91.78628413189152,157.14654189503963)"><path d="M7.20 9.21L7.20 9.21L7.20 9.21Q7.66 9.21 7.92 9.46L7.92 9.46L7.92 9.46Q8.18 9.72 8.18 10.16L8.18 10.16L8.18 10.16Q8.18 10.28 8.15 10.39L8.15 10.39L8.15 10.39Q8.13 10.51 8.11 10.60L8.11 10.60L8.11 10.60Q7.92 10.57 7.70 10.55L7.70 10.55L7.70 10.55Q7.48 10.53 7.17 10.53L7.17 10.53L7.17 10.53Q6.57 10.53 5.95 10.63L5.95 10.63L5.95 10.63Q5.33 10.74 4.77 10.81L4.77 10.81L4.77 10.81Q4.45 11.55 4.19 12.24L4.19 12.24L4.19 12.24Q3.92 12.94 3.73 13.51L3.73 13.51L3.73 13.51Q3.54 14.08 3.44 14.50L3.44 14.50L3.44 14.50Q3.33 14.92 3.32 15.13L3.32 15.13L3.32 15.13Q4.45 14.90 5.61 14.73L5.61 14.73L5.61 14.73Q6.76 14.56 8.04 14.48L8.04 14.48L8.04 14.48Q8.19 14.71 8.29 14.99L8.29 14.99L8.29 14.99Q8.40 15.27 8.40 15.60L8.40 15.60L8.40 15.60Q8.40 15.68 8.40 15.78L8.40 15.78L8.40 15.78Q8.40 15.88 8.37 15.97L8.37 15.97L8.37 15.97Q7.98 15.96 7.55 15.95L7.55 15.95L7.55 15.95Q7.11 15.95 6.41 15.95L6.41 15.95L6.41 15.95Q5.95 15.95 5.54 15.97L5.54 15.97L5.54 15.97Q5.12 15.99 4.70 16.03L4.70 16.03L4.70 16.03Q4.28 16.07 3.81 16.14L3.81 16.14L3.81 16.14Q3.35 16.21 2.76 16.31L2.76 16.31L2.76 16.31Q2.11 16.06 1.51 15.08L1.51 15.08L1.51 15.08Q1.75 14.57 2.18 13.54L2.18 13.54L2.18 13.54Q2.60 12.52 3.26 10.79L3.26 10.79L3.26 10.79Q2.63 10.60 2.44 10.09L2.44 10.09L2.44 10.09Q2.51 10.02 2.84 9.92L2.84 9.92L2.84 9.92Q3.18 9.81 3.67 9.70L3.67 9.70L3.67 9.70Q3.88 9.16 4.03 8.75L4.03 8.75L4.03 8.75Q4.17 8.34 4.28 7.99L4.28 7.99L4.28 7.99Q4.40 7.63 4.49 7.29L4.49 7.29L4.49 7.29Q4.58 6.94 4.66 6.54L4.66 6.54L4.66 6.54Q4.17 6.51 3.89 6.27L3.89 6.27L3.89 6.27Q3.61 6.02 3.61 5.63L3.61 5.63L3.61 5.63Q3.61 5.52 3.65 5.36L3.65 5.36L3.65 5.36Q3.68 5.21 3.72 5.10L3.72 5.10L3.72 5.10Q4.00 5.14 4.26 5.15L4.26 5.15L4.26 5.15Q4.52 5.17 4.94 5.17L4.94 5.17L4.94 5.17Q5.82 5.17 6.59 5.12L6.59 5.12L6.59 5.12Q7.36 5.07 7.99 5.01L7.99 5.01L7.99 5.01Q8.61 4.96 9.06 4.91L9.06 4.91L9.06 4.91Q9.51 4.86 9.74 4.86L9.74 4.86L9.74 4.86Q10.07 4.86 10.32 5.19L10.32 5.19L10.32 5.19Q10.57 5.53 10.70 6.15L10.70 6.15L10.70 6.15Q10.26 6.10 9.99 6.09L9.99 6.09L9.99 6.09Q9.72 6.08 9.51 6.08L9.51 6.08L9.51 6.08Q8.74 6.08 8.10 6.15L8.10 6.15L8.10 6.15Q7.46 6.23 6.87 6.31L6.87 6.31L6.87 6.31Q6.79 6.44 6.69 6.64L6.69 6.64L6.69 6.64Q6.58 6.83 6.41 7.18L6.41 7.18L6.41 7.18Q6.24 7.53 6.00 8.06L6.00 8.06L6.00 8.06Q5.75 8.60 5.40 9.39L5.40 9.39L5.40 9.39Q5.94 9.31 6.41 9.26L6.41 9.26L6.41 9.26Q6.87 9.21 7.20 9.21ZM18.19 16.24L18.19 16.24L18.19 16.24Q17.39 16.00 17.11 15.79L17.11 15.79L17.11 15.79Q16.83 15.57 16.83 15.19L16.83 15.19L16.83 15.19Q16.83 14.77 17.02 14.01L17.02 14.01L17.02 14.01Q17.22 13.24 17.54 12.31L17.54 12.31L17.54 12.31Q17.85 11.37 18.26 10.35L18.26 10.35L18.26 10.35Q18.66 9.32 19.08 8.39L19.08 8.39L19.08 8.39Q19.50 7.45 19.90 6.67L19.90 6.67L19.90 6.67Q20.30 5.89 20.61 5.46L20.61 5.46L20.51 4.87L20.51 4.87Q20.71 4.87 21.06 4.97L21.06 4.97L21.06 4.97Q21.41 5.07 21.76 5.21L21.76 5.21L21.76 5.21Q22.12 5.35 22.39 5.49L22.39 5.49L22.39 5.49Q22.67 5.64 22.69 5.74L22.69 5.74L22.69 5.74Q22.62 6.08 22.58 6.76L22.58 6.76L22.58 6.76Q22.54 7.43 22.54 8.20L22.54 8.20L22.54 8.20Q22.54 9.73 22.66 11.19L22.66 11.19L22.66 11.19Q22.78 12.66 23.21 14.17L23.21 14.17L23.21 14.17Q23.44 13.05 23.70 11.94L23.70 11.94L23.70 11.94Q23.95 10.82 24.23 9.81L24.23 9.81L24.23 9.81Q24.51 8.79 24.79 7.92L24.79 7.92L24.79 7.92Q25.07 7.06 25.33 6.40L25.33 6.40L25.33 6.40Q25.59 5.75 25.82 5.38L25.82 5.38L25.82 5.38Q26.04 5.01 26.22 4.98L26.22 4.98L26.22 4.98Q26.38 5.01 26.56 5.10L26.56 5.10L26.56 5.10Q26.74 5.19 26.91 5.32L26.91 5.32L26.91 5.32Q27.08 5.45 27.22 5.60L27.22 5.60L27.22 5.60Q27.36 5.75 27.44 5.91L27.44 5.91L27.44 5.91Q26.99 6.09 26.55 6.76L26.55 6.76L26.55 6.76Q26.11 7.43 25.71 8.39L25.71 8.39L25.71 8.39Q25.31 9.35 24.97 10.47L24.97 10.47L24.97 10.47Q24.63 11.59 24.37 12.68L24.37 12.68L24.37 12.68Q24.11 13.76 23.96 14.69L23.96 14.69L23.96 14.69Q23.81 15.61 23.80 16.17L23.80 16.17L23.80 16.17Q23.80 16.20 23.81 16.21L23.81 16.21L23.81 16.21Q23.77 16.23 23.72 16.23L23.72 16.23L23.72 16.23Q23.67 16.23 23.63 16.23L23.63 16.23L23.63 16.23Q22.99 16.23 22.49 16.07L22.49 16.07L22.49 16.07Q21.99 15.90 21.84 15.61L21.84 15.61L21.84 15.61Q21.55 14.43 21.35 13.34L21.35 13.34L21.35 13.34Q21.15 12.25 21.02 11.16L21.02 11.16L21.02 11.16Q20.89 10.07 20.81 8.95L20.81 8.95L20.81 8.95Q20.73 7.84 20.69 6.62L20.69 6.62L20.69 6.62Q20.43 7.04 20.13 7.72L20.13 7.72L20.13 7.72Q19.84 8.40 19.56 9.21L19.56 9.21L19.56 9.21Q19.28 10.02 19.02 10.92L19.02 10.92L19.02 10.92Q18.76 11.82 18.56 12.67L18.56 12.67L18.56 12.67Q18.37 13.52 18.26 14.29L18.26 14.29L18.26 14.29Q18.14 15.05 18.14 15.61L18.14 15.61L18.14 15.61Q18.14 15.90 18.15 16.03L18.15 16.03L18.15 16.03Q18.16 16.16 18.19 16.24ZM42.63 5.74L42.63 5.74L42.63 5.74Q42.67 5.98 42.69 6.07L42.69 6.07L42.69 6.07Q42.71 6.16 42.71 6.31L42.71 6.31L42.71 6.31Q42.71 6.78 42.51 7.18L42.51 7.18L42.51 7.18Q42.31 7.57 41.96 7.74L41.96 7.74L41.96 7.74Q41.68 7.36 41.27 7.09L41.27 7.09L41.27 7.09Q40.87 6.82 40.38 6.64L40.38 6.64L40.38 6.64Q39.90 6.47 39.38 6.38L39.38 6.38L39.38 6.38Q38.86 6.30 38.37 6.30L38.37 6.30L38.37 6.30Q37.88 6.30 37.46 6.38L37.46 6.38L37.46 6.38Q37.03 6.45 36.70 6.59L36.70 6.59L36.70 6.59Q36.37 6.72 36.18 6.92L36.18 6.92L36.18 6.92Q35.99 7.11 35.99 7.36L35.99 7.36L35.99 7.36Q36.04 7.67 36.37 7.99L36.37 7.99L36.37 7.99Q36.71 8.30 37.20 8.60L37.20 8.60L37.20 8.60Q37.69 8.90 38.28 9.20L38.28 9.20L38.28 9.20Q38.88 9.49 39.45 9.76L39.45 9.76L39.45 9.76Q40.17 10.09 40.68 10.38L40.68 10.38L40.68 10.38Q41.20 10.67 41.54 11.01L41.54 11.01L41.54 11.01Q41.87 11.35 42.04 11.79L42.04 11.79L42.04 11.79Q42.21 12.22 42.21 12.84L42.21 12.84L42.21 12.84Q42.21 13.55 41.97 14.18L41.97 14.18L41.97 14.18Q41.73 14.80 41.28 15.26L41.28 15.26L41.28 15.26Q40.82 15.72 40.18 15.98L40.18 15.98L40.18 15.98Q39.54 16.24 38.74 16.24L38.74 16.24L38.74 16.24Q37.95 16.24 37.04 16.00L37.04 16.00L37.04 16.00Q36.13 15.76 35.34 15.35L35.34 15.35L35.34 15.35Q34.55 14.94 34.03 14.40L34.03 14.40L34.03 14.40Q33.50 13.86 33.50 13.26L33.50 13.26L33.50 13.26Q33.50 12.98 33.66 12.54L33.66 12.54L33.66 12.54Q33.82 12.11 34.24 11.63L34.24 11.63L34.24 11.63Q34.29 12.05 34.70 12.63L34.70 12.63L34.70 12.63Q35.11 13.20 35.94 13.69L35.94 13.69L35.94 13.69Q36.71 14.14 37.53 14.34L37.53 14.34L37.53 14.34Q38.35 14.55 39.06 14.55L39.06 14.55L39.06 14.55Q39.84 14.55 40.33 14.35L40.33 14.35L40.33 14.35Q40.82 14.15 41.10 13.88L41.10 13.88L41.10 13.88Q41.38 13.61 41.50 13.33L41.50 13.33L41.50 13.33Q41.61 13.05 41.62 12.88L41.62 12.88L41.62 12.88Q41.61 12.60 41.36 12.34L41.36 12.34L41.36 12.34Q41.12 12.08 40.70 11.84L40.70 11.84L40.70 11.84Q40.29 11.59 39.75 11.34L39.75 11.34L39.75 11.34Q39.20 11.09 38.61 10.84L38.61 10.84L38.61 10.84Q37.73 10.44 37.09 10.10L37.09 10.10L37.09 10.10Q36.46 9.76 36.04 9.40L36.04 9.40L36.04 9.40Q35.63 9.04 35.44 8.65L35.44 8.65L35.44 8.65Q35.25 8.26 35.25 7.76L35.25 7.76L35.25 7.76Q35.25 6.97 35.73 6.27L35.73 6.27L35.73 6.27Q36.20 5.57 37.10 5.21L37.10 5.21L37.10 5.21Q37.55 5.01 38.06 4.93L38.06 4.93L38.06 4.93Q38.57 4.84 39.06 4.84L39.06 4.84L39.06 4.84Q39.98 4.84 40.87 5.10L40.87 5.10L40.87 5.10Q41.75 5.35 42.63 5.74ZM56.11 9.21L56.11 9.21L56.11 9.21Q56.57 9.21 56.83 9.46L56.83 9.46L56.83 9.46Q57.09 9.72 57.09 10.16L57.09 10.16L57.09 10.16Q57.09 10.28 57.07 10.39L57.07 10.39L57.07 10.39Q57.05 10.51 57.02 10.60L57.02 10.60L57.02 10.60Q56.84 10.57 56.62 10.55L56.62 10.55L56.62 10.55Q56.39 10.53 56.08 10.53L56.08 10.53L56.08 10.53Q55.48 10.53 54.87 10.63L54.87 10.63L54.87 10.63Q54.25 10.74 53.69 10.81L53.69 10.81L53.69 10.81Q53.37 11.55 53.10 12.24L53.10 12.24L53.10 12.24Q52.84 12.94 52.65 13.51L52.65 13.51L52.65 13.51Q52.46 14.08 52.35 14.50L52.35 14.50L52.35 14.50Q52.25 14.92 52.23 15.13L52.23 15.13L52.23 15.13Q53.37 14.90 54.52 14.73L54.52 14.73L54.52 14.73Q55.68 14.56 56.95 14.48L56.95 14.48L56.95 14.48Q57.11 14.71 57.21 14.99L57.21 14.99L57.21 14.99Q57.32 15.27 57.32 15.60L57.32 15.60L57.32 15.60Q57.32 15.68 57.32 15.78L57.32 15.78L57.32 15.78Q57.32 15.88 57.29 15.97L57.29 15.97L57.29 15.97Q56.90 15.96 56.46 15.95L56.46 15.95L56.46 15.95Q56.03 15.95 55.33 15.95L55.33 15.95L55.33 15.95Q54.87 15.95 54.45 15.97L54.45 15.97L54.45 15.97Q54.04 15.99 53.62 16.03L53.62 16.03L53.62 16.03Q53.20 16.07 52.73 16.14L52.73 16.14L52.73 16.14Q52.26 16.21 51.67 16.31L51.67 16.31L51.67 16.31Q51.03 16.06 50.43 15.08L50.43 15.08L50.43 15.08Q50.67 14.57 51.09 13.54L51.09 13.54L51.09 13.54Q51.52 12.52 52.18 10.79L52.18 10.79L52.18 10.79Q51.55 10.60 51.35 10.09L51.35 10.09L51.35 10.09Q51.42 10.02 51.76 9.92L51.76 9.92L51.76 9.92Q52.09 9.81 52.58 9.70L52.58 9.70L52.58 9.70Q52.79 9.16 52.94 8.75L52.94 8.75L52.94 8.75Q53.09 8.34 53.20 7.99L53.20 7.99L53.20 7.99Q53.31 7.63 53.40 7.29L53.40 7.29L53.40 7.29Q53.49 6.94 53.58 6.54L53.58 6.54L53.58 6.54Q53.09 6.51 52.81 6.27L52.81 6.27L52.81 6.27Q52.53 6.02 52.53 5.63L52.53 5.63L52.53 5.63Q52.53 5.52 52.56 5.36L52.56 5.36L52.56 5.36Q52.60 5.21 52.64 5.10L52.64 5.10L52.64 5.10Q52.92 5.14 53.18 5.15L53.18 5.15L53.18 5.15Q53.44 5.17 53.86 5.17L53.86 5.17L53.86 5.17Q54.74 5.17 55.51 5.12L55.51 5.12L55.51 5.12Q56.28 5.07 56.90 5.01L56.90 5.01L56.90 5.01Q57.53 4.96 57.97 4.91L57.97 4.91L57.97 4.91Q58.42 4.86 58.66 4.86L58.66 4.86L58.66 4.86Q58.98 4.86 59.23 5.19L59.23 5.19L59.23 5.19Q59.49 5.53 59.61 6.15L59.61 6.15L59.61 6.15Q59.18 6.10 58.91 6.09L58.91 6.09L58.91 6.09Q58.63 6.08 58.42 6.08L58.42 6.08L58.42 6.08Q57.65 6.08 57.02 6.15L57.02 6.15L57.02 6.15Q56.38 6.23 55.79 6.31L55.79 6.31L55.79 6.31Q55.71 6.44 55.60 6.64L55.60 6.64L55.60 6.64Q55.50 6.83 55.33 7.18L55.33 7.18L55.33 7.18Q55.16 7.53 54.91 8.06L54.91 8.06L54.91 8.06Q54.67 8.60 54.32 9.39L54.32 9.39L54.32 9.39Q54.85 9.31 55.32 9.26L55.32 9.26L55.32 9.26Q55.79 9.21 56.11 9.21ZM71.64 16.21L71.64 16.21L71.64 16.21Q71.61 16.23 71.58 16.23L71.58 16.23L71.58 16.23Q71.55 16.23 71.47 16.23L71.47 16.23L71.47 16.23Q71.27 16.23 71.01 16.16L71.01 16.16L71.01 16.16Q70.76 16.10 70.51 16.01L70.51 16.01L70.51 16.01Q70.27 15.92 70.09 15.81L70.09 15.81L70.09 15.81Q69.92 15.69 69.87 15.61L69.87 15.61L69.87 15.61Q69.86 15.41 69.86 15.20L69.86 15.20L69.86 15.20Q69.86 14.99 69.86 14.80L69.86 14.80L69.86 14.80Q69.86 13.23 70.09 11.52L70.09 11.52L70.09 11.52Q70.32 9.81 70.85 7.83L70.85 7.83L70.85 7.83Q70.91 7.63 70.97 7.33L70.97 7.33L70.97 7.33Q71.04 7.03 71.11 6.68L71.11 6.68L71.11 6.68Q70.77 6.94 70.31 7.53L70.31 7.53L70.31 7.53Q69.85 8.11 69.33 8.90L69.33 8.90L69.33 8.90Q68.82 9.69 68.31 10.63L68.31 10.63L68.31 10.63Q67.80 11.58 67.38 12.55L67.38 12.55L67.38 12.55Q66.96 13.52 66.66 14.48L66.66 14.48L66.66 14.48Q66.36 15.43 66.29 16.24L66.29 16.24L66.29 16.24Q65.62 16.04 65.36 15.85L65.36 15.85L65.36 15.85Q65.10 15.65 65.10 15.37L65.10 15.37L65.10 15.37Q65.10 15.12 65.25 14.66L65.25 14.66L65.25 14.66Q65.41 14.20 65.69 13.57L65.69 13.57L65.69 13.57Q65.97 12.94 66.37 12.16L66.37 12.16L66.37 12.16Q66.78 11.38 67.27 10.49L67.27 10.49L67.27 10.49Q67.83 9.46 68.37 8.57L68.37 8.57L68.37 8.57Q68.91 7.67 69.43 6.94L69.43 6.94L69.43 6.94Q69.94 6.22 70.44 5.68L70.44 5.68L70.44 5.68Q70.94 5.15 71.43 4.87L71.43 4.87L71.43 4.87Q71.62 4.87 71.95 4.97L71.95 4.97L71.95 4.97Q72.28 5.07 72.60 5.21L72.60 5.21L72.60 5.21Q72.91 5.35 73.16 5.49L73.16 5.49L73.16 5.49Q73.40 5.64 73.43 5.74L73.43 5.74L73.43 5.74Q73.23 6.13 72.97 6.92L72.97 6.92L72.97 6.92Q72.70 7.70 72.43 8.69L72.43 8.69L72.43 8.69Q72.16 9.69 71.91 10.80L71.91 10.80L71.91 10.80Q71.67 11.91 71.53 12.94L71.53 12.94L71.53 12.94Q71.85 12.17 72.27 11.33L72.27 11.33L72.27 11.33Q72.70 10.50 73.18 9.68L73.18 9.68L73.18 9.68Q73.65 8.86 74.15 8.09L74.15 8.09L74.15 8.09Q74.65 7.32 75.12 6.69L75.12 6.69L75.12 6.69Q75.60 6.05 76.01 5.57L76.01 5.57L76.01 5.57Q76.43 5.10 76.75 4.87L76.75 4.87L76.75 4.87Q76.94 4.87 77.27 4.97L77.27 4.97L77.27 4.97Q77.60 5.07 77.92 5.21L77.92 5.21L77.92 5.21Q78.23 5.35 78.48 5.49L78.48 5.49L78.48 5.49Q78.72 5.64 78.75 5.74L78.75 5.74L78.75 5.74Q78.30 6.54 77.97 7.69L77.97 7.69L77.97 7.69Q77.63 8.83 77.40 10.09L77.40 10.09L77.40 10.09Q77.17 11.35 77.05 12.59L77.05 12.59L77.05 12.59Q76.93 13.83 76.93 14.81L76.93 14.81L76.93 14.81Q76.93 15.13 76.93 15.48L76.93 15.48L76.93 15.48Q76.93 15.83 76.96 16.21L76.96 16.21L76.96 16.21Q76.76 16.21 76.49 16.16L76.49 16.16L76.49 16.16Q76.22 16.11 75.96 16.03L75.96 16.03L75.96 16.03Q75.70 15.95 75.49 15.84L75.49 15.84L75.49 15.84Q75.28 15.74 75.19 15.61L75.19 15.61L75.19 15.61Q75.18 15.41 75.18 15.20L75.18 15.20L75.18 15.20Q75.18 14.99 75.18 14.80L75.18 14.80L75.18 14.80Q75.18 13.23 75.41 11.52L75.41 11.52L75.41 11.52Q75.64 9.81 76.17 7.83L76.17 7.83L76.17 7.83Q76.23 7.63 76.30 7.29L76.30 7.29L76.30 7.29Q76.37 6.96 76.44 6.59L76.44 6.59L76.44 6.59Q76.05 6.79 75.55 7.34L75.55 7.34L75.55 7.34Q75.05 7.90 74.54 8.69L74.54 8.69L74.54 8.69Q74.03 9.48 73.53 10.44L73.53 10.44L73.53 10.44Q73.04 11.41 72.64 12.41L72.64 12.41L72.64 12.41Q72.24 13.41 71.97 14.40L71.97 14.40L71.97 14.40Q71.69 15.39 71.64 16.21ZM95.69 7.46L95.69 7.46L95.69 7.46Q95.69 8.33 95.21 9.01L95.21 9.01L95.21 9.01Q94.74 9.69 93.91 10.14L93.91 10.14L93.91 10.14Q94.44 10.50 94.76 11.03L94.76 11.03L94.76 11.03Q95.07 11.55 95.07 12.18L95.07 12.18L95.07 12.18Q95.07 12.94 94.62 13.67L94.62 13.67L94.62 13.67Q94.16 14.41 93.41 14.97L93.41 14.97L93.41 14.97Q92.65 15.54 91.69 15.89L91.69 15.89L91.69 15.89Q90.72 16.24 89.71 16.24L89.71 16.24L89.71 16.24Q88.62 16.24 87.80 15.83L87.80 15.83L87.80 15.83Q86.98 15.41 86.52 14.66L86.52 14.66L86.52 14.66Q86.66 14.24 86.89 13.62L86.89 13.62L86.89 13.62Q87.12 12.99 87.40 12.30L87.40 12.30L87.40 12.30Q87.68 11.61 87.97 10.92L87.97 10.92L87.97 10.92Q88.26 10.23 88.51 9.69L88.51 9.69L88.51 9.69Q89.04 8.50 89.46 7.71L89.46 7.71L89.46 7.71Q89.88 6.93 90.23 6.47L90.23 6.47L90.23 6.47Q89.46 6.71 88.83 7.01L88.83 7.01L88.83 7.01Q88.20 7.31 87.91 7.59L87.91 7.59L87.91 7.59Q87.78 7.50 87.65 7.34L87.65 7.34L87.65 7.34Q87.51 7.17 87.39 6.96L87.39 6.96L87.39 6.96Q87.28 6.76 87.20 6.55L87.20 6.55L87.20 6.55Q87.12 6.34 87.11 6.17L87.11 6.17L87.11 6.17Q87.47 5.92 88.05 5.69L88.05 5.69L88.05 5.69Q88.63 5.46 89.32 5.29L89.32 5.29L89.32 5.29Q90.01 5.12 90.73 5.03L90.73 5.03L90.73 5.03Q91.45 4.93 92.11 4.93L92.11 4.93L92.11 4.93Q93.79 4.93 94.74 5.60L94.74 5.60L94.74 5.60Q95.69 6.27 95.69 7.46ZM90.36 10.81L90.36 10.81L90.36 10.81Q90.09 10.68 89.87 10.43L89.87 10.43L89.87 10.43Q89.54 11.14 89.26 11.83L89.26 11.83L89.26 11.83Q88.97 12.52 88.75 13.10L88.75 13.10L88.75 13.10Q88.52 13.69 88.38 14.13L88.38 14.13L88.38 14.13Q88.24 14.56 88.23 14.76L88.23 14.76L88.23 14.76Q88.42 14.87 88.70 14.92L88.70 14.92L88.70 14.92Q88.97 14.98 89.38 14.98L89.38 14.98L89.38 14.98Q90.33 14.98 91.20 14.71L91.20 14.71L91.20 14.71Q92.06 14.45 92.72 13.99L92.72 13.99L92.72 13.99Q93.38 13.54 93.77 12.95L93.77 12.95L93.77 12.95Q94.16 12.36 94.16 11.72L94.16 11.72L94.16 11.72Q94.16 10.79 93.37 10.39L93.37 10.39L93.37 10.39Q92.27 10.84 90.90 10.84L90.90 10.84L90.90 10.84Q90.71 10.84 90.60 10.84L90.60 10.84L90.60 10.84Q90.50 10.84 90.36 10.81ZM93.07 5.95L93.07 5.95L93.07 5.95Q92.78 5.95 92.45 5.98L92.45 5.98L92.45 5.98Q92.12 6.02 91.76 6.09L91.76 6.09L91.76 6.09Q91.81 6.15 91.85 6.21L91.85 6.21L91.85 6.21Q91.88 6.27 91.91 6.34L91.91 6.34L91.91 6.34Q91.78 6.51 91.60 6.83L91.60 6.83L91.60 6.83Q91.42 7.15 91.20 7.58L91.20 7.58L91.20 7.58Q90.97 8.01 90.73 8.53L90.73 8.53L90.73 8.53Q90.48 9.04 90.23 9.59L90.23 9.59L90.23 9.59Q90.47 9.53 90.81 9.50L90.81 9.50L90.81 9.50Q91.15 9.46 91.49 9.46L91.49 9.46L91.49 9.46Q91.67 9.46 91.85 9.48L91.85 9.48L91.85 9.48Q92.02 9.49 92.19 9.52L92.19 9.52L92.19 9.52Q92.86 9.41 93.40 9.19L93.40 9.19L93.40 9.19Q93.94 8.97 94.33 8.69L94.33 8.69L94.33 8.69Q94.72 8.40 94.93 8.05L94.93 8.05L94.93 8.05Q95.14 7.70 95.14 7.31L95.14 7.31L95.14 7.31Q95.14 6.64 94.61 6.29L94.61 6.29L94.61 6.29Q94.08 5.95 93.07 5.95ZM108.32 14.38L108.32 14.38L108.32 14.38Q108.67 14.98 108.67 15.54L108.67 15.54L108.67 15.54Q108.67 15.67 108.65 15.77L108.65 15.77L108.65 15.77Q108.63 15.88 108.60 15.99L108.60 15.99L108.60 15.99Q108.36 15.96 108.10 15.95L108.10 15.95L108.10 15.95Q107.84 15.93 107.56 15.93L107.56 15.93L107.56 15.93Q107.23 15.93 106.88 15.95L106.88 15.95L106.88 15.95Q106.54 15.97 106.12 16.02L106.12 16.02L106.12 16.02Q105.70 16.06 105.18 16.13L105.18 16.13L105.18 16.13Q104.66 16.20 103.98 16.31L103.98 16.31L103.98 16.31Q103.66 16.20 103.33 15.87L103.33 15.87L103.33 15.87Q103.01 15.54 102.73 15.08L102.73 15.08L102.73 15.08Q102.87 14.77 103.08 14.31L103.08 14.31L103.08 14.31Q103.29 13.86 103.57 13.21L103.57 13.21L103.57 13.21Q103.85 12.56 104.19 11.68L104.19 11.68L104.19 11.68Q104.54 10.81 104.93 9.66L104.93 9.66L104.93 9.66Q105.18 8.90 105.36 8.33L105.36 8.33L105.36 8.33Q105.55 7.76 105.69 7.22L105.69 7.22L105.69 7.22Q105.84 6.68 105.98 6.09L105.98 6.09L105.98 6.09Q106.12 5.50 106.29 4.73L106.29 4.73L106.29 4.73Q106.85 4.84 107.26 5.14L107.26 5.14L107.26 5.14Q107.67 5.45 108.05 6.01L108.05 6.01L108.05 6.01Q107.94 6.19 107.76 6.59L107.76 6.59L107.76 6.59Q107.58 7 107.33 7.58L107.33 7.58L107.33 7.58Q107.09 8.16 106.79 8.90L106.79 8.90L106.79 8.90Q106.50 9.63 106.18 10.47L106.18 10.47L106.18 10.47Q105.87 11.30 105.57 12.03L105.57 12.03L105.57 12.03Q105.28 12.75 105.05 13.34L105.05 13.34L105.05 13.34Q104.82 13.93 104.68 14.35L104.68 14.35L104.68 14.35Q104.54 14.77 104.54 14.98L104.54 14.98L104.54 14.98Q104.76 14.97 104.94 14.95L104.94 14.95L104.94 14.95Q105.13 14.94 105.32 14.90L105.32 14.90L105.32 14.90Q105.52 14.87 105.75 14.82L105.75 14.82L105.75 14.82Q105.98 14.77 106.30 14.69L106.30 14.69L106.30 14.69Q106.58 14.62 106.82 14.57L106.82 14.57L106.82 14.57Q107.06 14.52 107.29 14.48L107.29 14.48L107.29 14.48Q107.52 14.45 107.77 14.43L107.77 14.43L107.77 14.43Q108.01 14.41 108.32 14.38ZM122.74 9.21L122.74 9.21L122.74 9.21Q123.20 9.21 123.46 9.46L123.46 9.46L123.46 9.46Q123.72 9.72 123.72 10.16L123.72 10.16L123.72 10.16Q123.72 10.28 123.70 10.39L123.70 10.39L123.70 10.39Q123.68 10.51 123.65 10.60L123.65 10.60L123.65 10.60Q123.47 10.57 123.24 10.55L123.24 10.55L123.24 10.55Q123.02 10.53 122.71 10.53L122.71 10.53L122.71 10.53Q122.11 10.53 121.49 10.63L121.49 10.63L121.49 10.63Q120.88 10.74 120.32 10.81L120.32 10.81L120.32 10.81Q119.99 11.55 119.73 12.24L119.73 12.24L119.73 12.24Q119.46 12.94 119.27 13.51L119.27 13.51L119.27 13.51Q119.08 14.08 118.98 14.50L118.98 14.50L118.98 14.50Q118.87 14.92 118.86 15.13L118.86 15.13L118.86 15.13Q119.99 14.90 121.15 14.73L121.15 14.73L121.15 14.73Q122.30 14.56 123.58 14.48L123.58 14.48L123.58 14.48Q123.73 14.71 123.84 14.99L123.84 14.99L123.84 14.99Q123.94 15.27 123.94 15.60L123.94 15.60L123.94 15.60Q123.94 15.68 123.94 15.78L123.94 15.78L123.94 15.78Q123.94 15.88 123.91 15.97L123.91 15.97L123.91 15.97Q123.52 15.96 123.09 15.95L123.09 15.95L123.09 15.95Q122.65 15.95 121.95 15.95L121.95 15.95L121.95 15.95Q121.49 15.95 121.08 15.97L121.08 15.97L121.08 15.97Q120.67 15.99 120.25 16.03L120.25 16.03L120.25 16.03Q119.83 16.07 119.36 16.14L119.36 16.14L119.36 16.14Q118.89 16.21 118.30 16.31L118.30 16.31L118.30 16.31Q117.66 16.06 117.05 15.08L117.05 15.08L117.05 15.08Q117.29 14.57 117.72 13.54L117.72 13.54L117.72 13.54Q118.15 12.52 118.80 10.79L118.80 10.79L118.80 10.79Q118.17 10.60 117.98 10.09L117.98 10.09L117.98 10.09Q118.05 10.02 118.38 9.92L118.38 9.92L118.38 9.92Q118.72 9.81 119.21 9.70L119.21 9.70L119.21 9.70Q119.42 9.16 119.57 8.75L119.57 8.75L119.57 8.75Q119.71 8.34 119.83 7.99L119.83 7.99L119.83 7.99Q119.94 7.63 120.03 7.29L120.03 7.29L120.03 7.29Q120.12 6.94 120.20 6.54L120.20 6.54L120.20 6.54Q119.71 6.51 119.43 6.27L119.43 6.27L119.43 6.27Q119.15 6.02 119.15 5.63L119.15 5.63L119.15 5.63Q119.15 5.52 119.19 5.36L119.19 5.36L119.19 5.36Q119.22 5.21 119.27 5.10L119.27 5.10L119.27 5.10Q119.55 5.14 119.81 5.15L119.81 5.15L119.81 5.15Q120.06 5.17 120.48 5.17L120.48 5.17L120.48 5.17Q121.37 5.17 122.14 5.12L122.14 5.12L122.14 5.12Q122.91 5.07 123.53 5.01L123.53 5.01L123.53 5.01Q124.15 4.96 124.60 4.91L124.60 4.91L124.60 4.91Q125.05 4.86 125.29 4.86L125.29 4.86L125.29 4.86Q125.61 4.86 125.86 5.19L125.86 5.19L125.86 5.19Q126.11 5.53 126.24 6.15L126.24 6.15L126.24 6.15Q125.80 6.10 125.53 6.09L125.53 6.09L125.53 6.09Q125.26 6.08 125.05 6.08L125.05 6.08L125.05 6.08Q124.28 6.08 123.64 6.15L123.64 6.15L123.64 6.15Q123.00 6.23 122.42 6.31L122.42 6.31L122.42 6.31Q122.33 6.44 122.23 6.64L122.23 6.64L122.23 6.64Q122.12 6.83 121.95 7.18L121.95 7.18L121.95 7.18Q121.79 7.53 121.54 8.06L121.54 8.06L121.54 8.06Q121.30 8.60 120.95 9.39L120.95 9.39L120.95 9.39Q121.48 9.31 121.95 9.26L121.95 9.26L121.95 9.26Q122.42 9.21 122.74 9.21ZM152.35 7.63L152.35 7.63L152.35 7.63Q152.35 8.40 151.96 9.10L151.96 9.10L151.96 9.10Q151.58 9.80 150.93 10.32L150.93 10.32L150.93 10.32Q150.28 10.85 149.40 11.16L149.40 11.16L149.40 11.16Q148.53 11.47 147.55 11.47L147.55 11.47L147.55 11.47Q147.20 11.47 146.99 11.38L146.99 11.38L146.99 11.38Q146.79 11.28 146.54 11.02L146.54 11.02L146.54 11.02Q145.84 12.54 145.40 13.82L145.40 13.82L145.40 13.82Q144.96 15.11 144.70 16.31L144.70 16.31L144.70 16.31Q144.17 16.18 143.84 15.87L143.84 15.87L143.84 15.87Q143.50 15.55 143.22 15.08L143.22 15.08L143.22 15.08Q143.36 14.81 143.56 14.38L143.56 14.38L143.56 14.38Q143.75 13.94 144.03 13.31L144.03 13.31L144.03 13.31Q144.31 12.67 144.68 11.78L144.68 11.78L144.68 11.78Q145.05 10.89 145.56 9.70L145.56 9.70L145.56 9.70Q145.78 9.16 145.95 8.75L145.95 8.75L145.95 8.75Q146.12 8.34 146.24 7.99L146.24 7.99L146.24 7.99Q146.37 7.63 146.47 7.28L146.47 7.28L146.47 7.28Q146.58 6.93 146.69 6.51L146.69 6.51L146.69 6.51Q146.03 6.72 145.48 7L145.48 7L145.48 7Q144.93 7.28 144.56 7.59L144.56 7.59L144.56 7.59Q144.44 7.50 144.30 7.34L144.30 7.34L144.30 7.34Q144.17 7.17 144.06 6.96L144.06 6.96L144.06 6.96Q143.95 6.76 143.86 6.55L143.86 6.55L143.86 6.55Q143.78 6.34 143.77 6.17L143.77 6.17L143.77 6.17Q144.17 5.89 144.77 5.66L144.77 5.66L144.77 5.66Q145.38 5.42 146.06 5.24L146.06 5.24L146.06 5.24Q146.75 5.07 147.48 4.97L147.48 4.97L147.48 4.97Q148.22 4.87 148.89 4.87L148.89 4.87L148.89 4.87Q149.69 4.87 150.33 5.07L150.33 5.07L150.33 5.07Q150.98 5.28 151.42 5.64L151.42 5.64L151.42 5.64Q151.87 6.01 152.11 6.51L152.11 6.51L152.11 6.51Q152.35 7.01 152.35 7.63ZM149.86 5.95L149.86 5.95L149.86 5.95Q149.32 5.95 148.76 6.03L148.76 6.03L148.93 6.29L148.93 6.29Q148.79 6.47 148.58 6.83L148.58 6.83L148.58 6.83Q148.37 7.20 148.12 7.71L148.12 7.71L148.12 7.71Q147.87 8.22 147.57 8.85L147.57 8.85L147.57 8.85Q147.27 9.48 146.93 10.18L146.93 10.18L146.93 10.18Q148.02 10.18 148.92 9.97L148.92 9.97L148.92 9.97Q149.81 9.77 150.45 9.41L150.45 9.41L150.45 9.41Q151.09 9.06 151.44 8.58L151.44 8.58L151.44 8.58Q151.80 8.11 151.80 7.56L151.80 7.56L151.80 7.56Q151.80 6.83 151.31 6.39L151.31 6.39L151.31 6.39Q150.82 5.95 149.86 5.95ZM159.43 16.24L159.43 16.24L159.43 16.24Q158.76 16.04 158.50 15.85L158.50 15.85L158.50 15.85Q158.24 15.65 158.24 15.36L158.24 15.36L158.24 15.36Q158.24 15.13 158.37 14.73L158.37 14.73L158.37 14.73Q158.49 14.32 158.74 13.77L158.74 13.77L158.74 13.77Q158.98 13.22 159.33 12.54L159.33 12.54L159.33 12.54Q159.67 11.87 160.10 11.10L160.10 11.10L160.10 11.10Q159.74 11.09 159.45 11.08L159.45 11.08L159.45 11.08Q159.17 11.07 158.98 11.07L158.98 11.07L158.98 11.07Q159.07 10.86 159.46 10.71L159.46 10.71L159.46 10.71Q159.85 10.56 160.50 10.44L160.50 10.44L160.50 10.44Q161.04 9.53 161.66 8.71L161.66 8.71L161.66 8.71Q162.29 7.88 162.92 7.19L162.92 7.19L162.92 7.19Q163.55 6.50 164.18 5.97L164.18 5.97L164.18 5.97Q164.81 5.45 165.38 5.14L165.38 5.14L165.38 5.14Q165.40 5.04 165.40 4.97L165.40 4.97L165.40 4.97Q165.41 4.90 165.41 4.87L165.41 4.87L165.41 4.87Q165.61 4.87 165.93 4.97L165.93 4.97L165.93 4.97Q166.26 5.07 166.58 5.21L166.58 5.21L166.58 5.21Q166.89 5.35 167.14 5.49L167.14 5.49L167.14 5.49Q167.38 5.64 167.41 5.74L167.41 5.74L167.41 5.74Q166.95 6.55 166.50 8.17L166.50 8.17L166.50 8.17Q166.05 9.79 165.76 12.04L165.76 12.04L165.76 12.04Q165.69 12.60 165.64 13.31L165.64 13.31L165.64 13.31Q165.59 14.03 165.59 14.91L165.59 14.91L165.59 14.91Q165.59 15.22 165.59 15.54L165.59 15.54L165.59 15.54Q165.59 15.86 165.62 16.21L165.62 16.21L165.62 16.21Q165.59 16.23 165.56 16.23L165.56 16.23L165.56 16.23Q165.54 16.23 165.45 16.23L165.45 16.23L165.45 16.23Q165.26 16.23 165.00 16.16L165.00 16.16L165.00 16.16Q164.74 16.10 164.49 16.01L164.49 16.01L164.49 16.01Q164.25 15.92 164.07 15.81L164.07 15.81L164.07 15.81Q163.90 15.69 163.86 15.61L163.86 15.61L163.86 15.61Q163.84 15.43 163.84 15.25L163.84 15.25L163.84 15.25Q163.84 15.08 163.84 14.88L163.84 14.88L163.84 14.88Q163.84 14.01 163.90 13.12L163.90 13.12L163.90 13.12Q163.97 12.22 164.12 11.27L164.12 11.27L164.12 11.27Q163.93 11.26 163.60 11.23L163.60 11.23L163.60 11.23Q163.28 11.21 162.88 11.20L162.88 11.20L162.88 11.20Q162.48 11.19 162.03 11.16L162.03 11.16L162.03 11.16Q161.57 11.14 161.14 11.13L161.14 11.13L161.14 11.13Q160.80 11.76 160.51 12.38L160.51 12.38L160.51 12.38Q160.22 13.01 160.01 13.64L160.01 13.64L160.01 13.64Q159.77 14.31 159.62 14.98L159.62 14.98L159.62 14.98Q159.47 15.65 159.43 16.24ZM164.84 7.83L164.84 7.83L164.84 7.83Q164.89 7.63 164.97 7.29L164.97 7.29L164.97 7.29Q165.05 6.94 165.12 6.57L165.12 6.57L165.12 6.57Q164.77 6.69 164.34 7.03L164.34 7.03L164.34 7.03Q163.91 7.36 163.46 7.86L163.46 7.86L163.46 7.86Q163.00 8.36 162.53 8.98L162.53 8.98L162.53 8.98Q162.06 9.60 161.63 10.30L161.63 10.30L161.63 10.30Q162.81 10.21 164.30 10.18L164.30 10.18L164.30 10.18Q164.42 9.59 164.55 9.01L164.55 9.01L164.55 9.01Q164.68 8.43 164.84 7.83ZM184.31 7.46L184.31 7.46L184.31 7.46Q184.31 8.13 184.01 8.73L184.01 8.73L184.01 8.73Q183.71 9.32 183.18 9.79L183.18 9.79L183.18 9.79Q182.64 10.26 181.93 10.58L181.93 10.58L181.93 10.58Q181.22 10.91 180.38 11.02L180.38 11.02L180.38 11.02Q180.59 11.65 180.89 12.31L180.89 12.31L180.89 12.31Q181.19 12.98 181.54 13.59L181.54 13.59L181.54 13.59Q181.89 14.21 182.27 14.73L182.27 14.73L182.27 14.73Q182.64 15.25 183.01 15.58L183.01 15.58L183.01 15.58Q182.94 15.72 182.80 15.86L182.80 15.86L182.80 15.86Q182.67 16.00 182.50 16.12L182.50 16.12L182.50 16.12Q182.32 16.24 182.13 16.32L182.13 16.32L182.13 16.32Q181.94 16.39 181.78 16.39L181.78 16.39L181.78 16.39Q181.47 16.39 181.19 16.10L181.19 16.10L181.19 16.10Q180.91 15.81 180.62 15.17L180.62 15.17L180.62 15.17Q180.33 14.53 180.02 13.52L180.02 13.52L180.02 13.52Q179.70 12.50 179.33 11.07L179.33 11.07L179.33 11.07Q179.17 11.07 179.02 11.07L179.02 11.07L179.02 11.07Q178.86 11.07 178.78 11.05L178.78 11.05L178.78 11.05Q178.68 10.99 178.57 10.85L178.57 10.85L178.57 10.85Q178.19 11.66 177.90 12.38L177.90 12.38L177.90 12.38Q177.60 13.09 177.37 13.76L177.37 13.76L177.37 13.76Q177.14 14.42 176.97 15.04L176.97 15.04L176.97 15.04Q176.79 15.67 176.67 16.31L176.67 16.31L176.67 16.31Q176.19 16.20 175.84 15.90L175.84 15.90L175.84 15.90Q175.49 15.61 175.18 15.08L175.18 15.08L175.18 15.08Q175.24 14.95 175.30 14.83L175.30 14.83L175.30 14.83Q175.36 14.71 175.46 14.50L175.46 14.50L175.46 14.50Q175.56 14.28 175.71 13.94L175.71 13.94L175.71 13.94Q175.85 13.61 176.10 13.05L176.10 13.05L176.10 13.05Q176.34 12.49 176.69 11.68L176.69 11.68L176.69 11.68Q177.03 10.86 177.52 9.70L177.52 9.70L177.52 9.70Q177.74 9.18 177.90 8.79L177.90 8.79L177.90 8.79Q178.07 8.40 178.19 8.04L178.19 8.04L178.19 8.04Q178.32 7.69 178.42 7.33L178.42 7.33L178.42 7.33Q178.53 6.97 178.64 6.51L178.64 6.51L178.64 6.51Q178.00 6.73 177.44 7.01L177.44 7.01L177.44 7.01Q176.89 7.28 176.53 7.59L176.53 7.59L176.53 7.59Q176.40 7.50 176.27 7.34L176.27 7.34L176.27 7.34Q176.13 7.17 176.02 6.96L176.02 6.96L176.02 6.96Q175.91 6.76 175.83 6.55L175.83 6.55L175.83 6.55Q175.74 6.34 175.73 6.17L175.73 6.17L175.73 6.17Q176.15 5.89 176.76 5.66L176.76 5.66L176.76 5.66Q177.37 5.42 178.05 5.24L178.05 5.24L178.05 5.24Q178.74 5.07 179.45 4.97L179.45 4.97L179.45 4.97Q180.17 4.87 180.78 4.87L180.78 4.87L180.78 4.87Q182.46 4.87 183.39 5.56L183.39 5.56L183.39 5.56Q184.31 6.26 184.31 7.46ZM180.73 6.02L180.89 6.29L180.89 6.29Q180.80 6.41 180.59 6.79L180.59 6.79L180.59 6.79Q180.38 7.17 180.10 7.69L180.10 7.69L180.10 7.69Q179.83 8.22 179.53 8.83L179.53 8.83L179.53 8.83Q179.23 9.45 178.95 10.05L178.95 10.05L178.95 10.05Q180.00 10.05 180.88 9.86L180.88 9.86L180.88 9.86Q181.76 9.66 182.41 9.30L182.41 9.30L182.41 9.30Q183.05 8.95 183.41 8.46L183.41 8.46L183.41 8.46Q183.76 7.98 183.76 7.39L183.76 7.39L183.76 7.39Q183.76 6.69 183.26 6.32L183.26 6.32L183.26 6.32Q182.76 5.95 181.71 5.95L181.71 5.95L181.71 5.95Q181.47 5.95 181.23 5.97L181.23 5.97L181.23 5.97Q180.99 5.99 180.73 6.02L180.73 6.02ZM193.66 6.69L193.66 6.69L193.66 6.69Q193.10 6.69 192.80 6.38L192.80 6.38L192.80 6.38Q192.50 6.06 192.50 5.61L192.50 5.61L192.50 5.61Q192.50 5.50 192.53 5.35L192.53 5.35L192.53 5.35Q192.57 5.19 192.63 5.08L192.63 5.08L192.63 5.08Q192.81 5.17 193.16 5.20L193.16 5.20L193.16 5.20Q193.52 5.24 194.00 5.24L194.00 5.24L194.00 5.24Q194.71 5.24 195.61 5.17L195.61 5.17L195.61 5.17Q196.52 5.11 197.34 5.04L197.34 5.04L197.34 5.04Q198.17 4.97 198.80 4.91L198.80 4.91L198.80 4.91Q199.43 4.84 199.61 4.84L199.61 4.84L199.61 4.84Q200.13 4.84 200.36 5.23L200.36 5.23L200.36 5.23Q200.59 5.61 200.70 6.26L200.70 6.26L200.70 6.26Q200.34 6.23 199.98 6.21L199.98 6.21L199.98 6.21Q199.63 6.19 199.37 6.19L199.37 6.19L199.37 6.19Q198.93 6.19 198.47 6.22L198.47 6.22L198.47 6.22Q198.02 6.24 197.55 6.30L197.55 6.30L197.55 6.30Q197.36 6.71 197.12 7.26L197.12 7.26L197.12 7.26Q196.88 7.81 196.65 8.41L196.65 8.41L196.65 8.41Q196.42 9.02 196.21 9.61L196.21 9.61L196.21 9.61Q196.00 10.21 195.85 10.68L195.85 10.68L195.85 10.68Q195.54 11.61 195.31 12.39L195.31 12.39L195.31 12.39Q195.08 13.17 194.90 13.85L194.90 13.85L194.90 13.85Q194.73 14.53 194.60 15.15L194.60 15.15L194.60 15.15Q194.47 15.76 194.38 16.35L194.38 16.35L194.38 16.35Q193.44 16.21 192.81 15.18L192.81 15.18L192.81 15.18Q192.92 14.74 193.08 14.23L193.08 14.23L193.08 14.23Q193.24 13.72 193.46 13.07L193.46 13.07L193.46 13.07Q193.68 12.42 193.97 11.59L193.97 11.59L193.97 11.59Q194.26 10.77 194.64 9.72L194.64 9.72L194.64 9.72Q194.78 9.32 194.94 8.90L194.94 8.90L194.94 8.90Q195.09 8.47 195.24 8.05L195.24 8.05L195.24 8.05Q195.38 7.63 195.50 7.24L195.50 7.24L195.50 7.24Q195.62 6.85 195.71 6.52L195.71 6.52L195.71 6.52Q195.12 6.59 194.59 6.64L194.59 6.64L194.59 6.64Q194.07 6.69 193.66 6.69ZM206.09 16.24L206.09 16.24L206.09 16.24Q205.42 16.04 205.16 15.85L205.16 15.85L205.16 15.85Q204.90 15.65 204.90 15.36L204.90 15.36L204.90 15.36Q204.90 15.13 205.03 14.73L205.03 14.73L205.03 14.73Q205.16 14.32 205.40 13.77L205.40 13.77L205.40 13.77Q205.65 13.22 205.99 12.54L205.99 12.54L205.99 12.54Q206.33 11.87 206.77 11.10L206.77 11.10L206.77 11.10Q206.40 11.09 206.11 11.08L206.11 11.08L206.11 11.08Q205.83 11.07 205.65 11.07L205.65 11.07L205.65 11.07Q205.73 10.86 206.12 10.71L206.12 10.71L206.12 10.71Q206.51 10.56 207.16 10.44L207.16 10.44L207.16 10.44Q207.70 9.53 208.33 8.71L208.33 8.71L208.33 8.71Q208.95 7.88 209.58 7.19L209.58 7.19L209.58 7.19Q210.21 6.50 210.84 5.97L210.84 5.97L210.84 5.97Q211.47 5.45 212.04 5.14L212.04 5.14L212.04 5.14Q212.06 5.04 212.06 4.97L212.06 4.97L212.06 4.97Q212.07 4.90 212.07 4.87L212.07 4.87L212.07 4.87Q212.27 4.87 212.60 4.97L212.60 4.97L212.60 4.97Q212.93 5.07 213.24 5.21L213.24 5.21L213.24 5.21Q213.56 5.35 213.80 5.49L213.80 5.49L213.80 5.49Q214.05 5.64 214.07 5.74L214.07 5.74L214.07 5.74Q213.61 6.55 213.16 8.17L213.16 8.17L213.16 8.17Q212.72 9.79 212.42 12.04L212.42 12.04L212.42 12.04Q212.35 12.60 212.30 13.31L212.30 13.31L212.30 13.31Q212.25 14.03 212.25 14.91L212.25 14.91L212.25 14.91Q212.25 15.22 212.25 15.54L212.25 15.54L212.25 15.54Q212.25 15.86 212.28 16.21L212.28 16.21L212.28 16.21Q212.25 16.23 212.23 16.23L212.23 16.23L212.23 16.23Q212.20 16.23 212.11 16.23L212.11 16.23L212.11 16.23Q211.92 16.23 211.66 16.16L211.66 16.16L211.66 16.16Q211.40 16.10 211.15 16.01L211.15 16.01L211.15 16.01Q210.91 15.92 210.73 15.81L210.73 15.81L210.73 15.81Q210.56 15.69 210.52 15.61L210.52 15.61L210.52 15.61Q210.50 15.43 210.50 15.25L210.50 15.25L210.50 15.25Q210.50 15.08 210.50 14.88L210.50 14.88L210.50 14.88Q210.50 14.01 210.57 13.12L210.57 13.12L210.57 13.12Q210.63 12.22 210.78 11.27L210.78 11.27L210.78 11.27Q210.59 11.26 210.27 11.23L210.27 11.23L210.27 11.23Q209.94 11.21 209.54 11.20L209.54 11.20L209.54 11.20Q209.15 11.19 208.69 11.16L208.69 11.16L208.69 11.16Q208.24 11.14 207.80 11.13L207.80 11.13L207.80 11.13Q207.47 11.76 207.17 12.38L207.17 12.38L207.17 12.38Q206.88 13.01 206.67 13.64L206.67 13.64L206.67 13.64Q206.43 14.31 206.28 14.98L206.28 14.98L206.28 14.98Q206.14 15.65 206.09 16.24ZM211.50 7.83L211.50 7.83L211.50 7.83Q211.55 7.63 211.63 7.29L211.63 7.29L211.63 7.29Q211.71 6.94 211.78 6.57L211.78 6.57L211.78 6.57Q211.43 6.69 211.00 7.03L211.00 7.03L211.00 7.03Q210.57 7.36 210.12 7.86L210.12 7.86L210.12 7.86Q209.66 8.36 209.19 8.98L209.19 8.98L209.19 8.98Q208.73 9.60 208.29 10.30L208.29 10.30L208.29 10.30Q209.47 10.21 210.97 10.18L210.97 10.18L210.97 10.18Q211.08 9.59 211.21 9.01L211.21 9.01L211.21 9.01Q211.34 8.43 211.50 7.83ZM229.00 10.72L229.00 10.72L229.00 10.72Q229.36 10.72 229.57 10.98L229.57 10.98L229.57 10.98Q229.78 11.23 229.78 11.68L229.78 11.68L229.78 11.68Q229.78 11.79 229.77 11.91L229.77 11.91L229.77 11.91Q229.75 12.03 229.73 12.11L229.73 12.11L229.73 12.11Q229.43 12.04 229.08 12.03L229.08 12.03L229.08 12.03Q229.00 12.64 228.63 13.32L228.63 13.32L228.63 13.32Q228.27 14 227.75 14.60L227.75 14.60L227.75 14.60Q227.23 15.19 226.62 15.64L226.62 15.64L226.62 15.64Q226.00 16.09 225.40 16.24L225.40 16.24L225.40 16.24Q223.52 16.20 222.66 15.27L222.66 15.27L222.66 15.27Q221.80 14.34 221.80 12.36L221.80 12.36L221.80 12.36Q221.80 10.92 222.33 9.57L222.33 9.57L222.33 9.57Q222.87 8.22 223.75 7.17L223.75 7.17L223.75 7.17Q224.63 6.12 225.77 5.48L225.77 5.48L225.77 5.48Q226.91 4.84 228.14 4.84L228.14 4.84L228.14 4.84Q229.11 4.84 229.65 5.25L229.65 5.25L229.65 5.25Q230.19 5.66 230.19 6.40L230.19 6.40L230.19 6.40Q230.19 6.89 229.96 7.31L229.96 7.31L229.96 7.31Q229.73 7.73 229.19 8.22L229.19 8.22L229.19 8.22Q228.87 8.12 228.63 7.88L228.63 7.88L228.63 7.88Q228.40 7.63 228.34 7.31L228.34 7.31L228.34 7.31Q228.82 6.96 229.01 6.66L229.01 6.66L229.01 6.66Q229.21 6.37 229.21 5.96L229.21 5.96L229.21 5.96Q229.21 5.32 228.44 5.32L228.44 5.32L228.44 5.32Q227.81 5.32 227.09 5.79L227.09 5.79L227.09 5.79Q226.37 6.26 225.64 7.14L225.64 7.14L225.64 7.14Q224.60 8.39 224.13 9.71L224.13 9.71L224.13 9.71Q223.65 11.03 223.65 12.68L223.65 12.68L223.65 12.68Q223.65 13.30 223.78 13.80L223.78 13.80L223.78 13.80Q223.90 14.31 224.11 14.69L224.11 14.69L224.11 14.69Q224.32 15.06 224.61 15.29L224.61 15.29L224.61 15.29Q224.90 15.51 225.23 15.54L225.23 15.54L225.23 15.54Q225.68 15.44 226.13 15.09L226.13 15.09L226.13 15.09Q226.58 14.73 226.95 14.25L226.95 14.25L226.95 14.25Q227.32 13.76 227.58 13.21L227.58 13.21L227.58 13.21Q227.84 12.66 227.89 12.15L227.89 12.15L227.89 12.15Q227.50 12.24 227.14 12.31L227.14 12.31L227.14 12.31Q226.79 12.39 226.46 12.39L226.46 12.39L226.46 12.39Q226.04 12.39 225.73 12.18L225.73 12.18L225.73 12.18Q225.41 11.97 225.30 11.61L225.30 11.61L225.30 11.61Q225.55 11.47 226.04 11.31L226.04 11.31L226.04 11.31Q226.52 11.16 227.07 11.03L227.07 11.03L227.07 11.03Q227.61 10.89 228.14 10.81L228.14 10.81L228.14 10.81Q228.66 10.72 229.00 10.72ZM243.12 9.21L243.12 9.21L243.12 9.21Q243.59 9.21 243.84 9.46L243.84 9.46L243.84 9.46Q244.10 9.72 244.10 10.16L244.10 10.16L244.10 10.16Q244.10 10.28 244.08 10.39L244.08 10.39L244.08 10.39Q244.06 10.51 244.03 10.60L244.03 10.60L244.03 10.60Q243.85 10.57 243.63 10.55L243.63 10.55L243.63 10.55Q243.40 10.53 243.10 10.53L243.10 10.53L243.10 10.53Q242.49 10.53 241.88 10.63L241.88 10.63L241.88 10.63Q241.26 10.74 240.70 10.81L240.70 10.81L240.70 10.81Q240.38 11.55 240.11 12.24L240.11 12.24L240.11 12.24Q239.85 12.94 239.66 13.51L239.66 13.51L239.66 13.51Q239.47 14.08 239.36 14.50L239.36 14.50L239.36 14.50Q239.26 14.92 239.25 15.13L239.25 15.13L239.25 15.13Q240.38 14.90 241.53 14.73L241.53 14.73L241.53 14.73Q242.69 14.56 243.96 14.48L243.96 14.48L243.96 14.48Q244.12 14.71 244.22 14.99L244.22 14.99L244.22 14.99Q244.33 15.27 244.33 15.60L244.33 15.60L244.33 15.60Q244.33 15.68 244.33 15.78L244.33 15.78L244.33 15.78Q244.33 15.88 244.30 15.97L244.30 15.97L244.30 15.97Q243.91 15.96 243.47 15.95L243.47 15.95L243.47 15.95Q243.04 15.95 242.34 15.95L242.34 15.95L242.34 15.95Q241.88 15.95 241.46 15.97L241.46 15.97L241.46 15.97Q241.05 15.99 240.63 16.03L240.63 16.03L240.63 16.03Q240.21 16.07 239.74 16.14L239.74 16.14L239.74 16.14Q239.27 16.21 238.69 16.31L238.69 16.31L238.69 16.31Q238.04 16.06 237.44 15.08L237.44 15.08L237.44 15.08Q237.68 14.57 238.10 13.54L238.10 13.54L238.10 13.54Q238.53 12.52 239.19 10.79L239.19 10.79L239.19 10.79Q238.56 10.60 238.36 10.09L238.36 10.09L238.36 10.09Q238.43 10.02 238.77 9.92L238.77 9.92L238.77 9.92Q239.11 9.81 239.60 9.70L239.60 9.70L239.60 9.70Q239.81 9.16 239.95 8.75L239.95 8.75L239.95 8.75Q240.10 8.34 240.21 7.99L240.21 7.99L240.21 7.99Q240.32 7.63 240.41 7.29L240.41 7.29L240.41 7.29Q240.51 6.94 240.59 6.54L240.59 6.54L240.59 6.54Q240.10 6.51 239.82 6.27L239.82 6.27L239.82 6.27Q239.54 6.02 239.54 5.63L239.54 5.63L239.54 5.63Q239.54 5.52 239.57 5.36L239.57 5.36L239.57 5.36Q239.61 5.21 239.65 5.10L239.65 5.10L239.65 5.10Q239.93 5.14 240.19 5.15L240.19 5.15L240.19 5.15Q240.45 5.17 240.87 5.17L240.87 5.17L240.87 5.17Q241.75 5.17 242.52 5.12L242.52 5.12L242.52 5.12Q243.29 5.07 243.91 5.01L243.91 5.01L243.91 5.01Q244.54 4.96 244.99 4.91L244.99 4.91L244.99 4.91Q245.43 4.86 245.67 4.86L245.67 4.86L245.67 4.86Q245.99 4.86 246.25 5.19L246.25 5.19L246.25 5.19Q246.50 5.53 246.62 6.15L246.62 6.15L246.62 6.15Q246.19 6.10 245.92 6.09L245.92 6.09L245.92 6.09Q245.64 6.08 245.43 6.08L245.43 6.08L245.43 6.08Q244.66 6.08 244.03 6.15L244.03 6.15L244.03 6.15Q243.39 6.23 242.80 6.31L242.80 6.31L242.80 6.31Q242.72 6.44 242.61 6.64L242.61 6.64L242.61 6.64Q242.51 6.83 242.34 7.18L242.34 7.18L242.34 7.18Q242.17 7.53 241.93 8.06L241.93 8.06L241.93 8.06Q241.68 8.60 241.33 9.39L241.33 9.39L241.33 9.39Q241.86 9.31 242.33 9.26L242.33 9.26L242.33 9.26Q242.80 9.21 243.12 9.21ZM259.24 4.98L259.24 4.98L259.24 4.98Q259.50 5.10 259.78 5.27L259.78 5.27L259.78 5.27Q260.06 5.45 260.30 5.63L260.30 5.63L260.30 5.63Q260.54 5.81 260.70 5.98L260.70 5.98L260.70 5.98Q260.86 6.16 260.88 6.27L260.88 6.27L260.88 6.27Q260.64 6.22 260.40 6.20L260.40 6.20L260.40 6.20Q260.16 6.17 259.97 6.17L259.97 6.17L259.97 6.17Q259.34 6.17 258.71 6.48L258.71 6.48L258.71 6.48Q258.09 6.79 257.53 7.32L257.53 7.32L257.53 7.32Q256.97 7.85 256.49 8.57L256.49 8.57L256.49 8.57Q256.02 9.28 255.67 10.09L255.67 10.09L255.67 10.09Q255.33 10.91 255.14 11.77L255.14 11.77L255.14 11.77Q254.94 12.64 254.94 13.48L254.94 13.48L254.94 13.48Q254.94 14.57 255.30 15.11L255.30 15.11L255.30 15.11Q255.67 15.64 256.37 15.64L256.37 15.64L256.37 15.64Q256.70 15.64 257.10 15.51L257.10 15.51L257.10 15.51Q257.49 15.37 257.89 15.13L257.89 15.13L257.89 15.13Q258.30 14.90 258.69 14.56L258.69 14.56L258.69 14.56Q259.08 14.22 259.42 13.82L259.42 13.82L259.42 13.82Q259.91 13.23 260.30 12.48L260.30 12.48L260.30 12.48Q260.69 11.73 260.97 10.89L260.97 10.89L260.97 10.89Q261.24 10.05 261.39 9.16L261.39 9.16L261.39 9.16Q261.53 8.27 261.53 7.42L261.53 7.42L261.53 7.42Q261.53 7.08 261.52 6.85L261.52 6.85L261.52 6.85Q261.51 6.62 261.48 6.46L261.48 6.46L261.48 6.46Q261.46 6.30 261.45 6.20L261.45 6.20L261.45 6.20Q261.44 6.10 261.42 6.03L261.42 6.03L261.42 6.03Q261.59 6.12 261.79 6.24L261.79 6.24L261.79 6.24Q262.00 6.36 262.17 6.59L262.17 6.59L262.17 6.59Q262.35 6.82 262.46 7.20L262.46 7.20L262.46 7.20Q262.58 7.57 262.58 8.18L262.58 8.18L262.58 8.18Q262.58 9.16 262.35 10.10L262.35 10.10L262.35 10.10Q262.12 11.05 261.71 11.90L261.71 11.90L261.71 11.90Q261.30 12.75 260.74 13.50L260.74 13.50L260.74 13.50Q260.18 14.24 259.53 14.80L259.53 14.80L259.53 14.80Q258.69 15.54 257.74 15.95L257.74 15.95L257.74 15.95Q256.79 16.35 255.91 16.35L255.91 16.35L255.91 16.35Q254.62 16.35 253.94 15.53L253.94 15.53L253.94 15.53Q253.26 14.71 253.26 13.12L253.26 13.12L253.26 13.12Q253.26 12.26 253.45 11.31L253.45 11.31L253.45 11.31Q253.64 10.36 253.98 9.44L253.98 9.44L253.98 9.44Q254.32 8.51 254.80 7.68L254.80 7.68L254.80 7.68Q255.28 6.85 255.84 6.21L255.84 6.21L255.84 6.21Q256.41 5.57 257.06 5.19L257.06 5.19L257.06 5.19Q257.71 4.82 258.40 4.82L258.40 4.82L258.40 4.82Q258.62 4.82 258.82 4.85L258.82 4.85L258.82 4.85Q259.01 4.89 259.24 4.98ZM271.15 16.24L271.15 16.24L271.15 16.24Q270.35 16.00 270.07 15.79L270.07 15.79L270.07 15.79Q269.79 15.57 269.79 15.19L269.79 15.19L269.79 15.19Q269.79 14.77 269.99 14.01L269.99 14.01L269.99 14.01Q270.19 13.24 270.50 12.31L270.50 12.31L270.50 12.31Q270.82 11.37 271.22 10.35L271.22 10.35L271.22 10.35Q271.63 9.32 272.05 8.39L272.05 8.39L272.05 8.39Q272.47 7.45 272.87 6.67L272.87 6.67L272.87 6.67Q273.27 5.89 273.57 5.46L273.57 5.46L273.48 4.87L273.48 4.87Q273.67 4.87 274.02 4.97L274.02 4.97L274.02 4.97Q274.37 5.07 274.73 5.21L274.73 5.21L274.73 5.21Q275.09 5.35 275.36 5.49L275.36 5.49L275.36 5.49Q275.63 5.64 275.66 5.74L275.66 5.74L275.66 5.74Q275.59 6.08 275.55 6.76L275.55 6.76L275.55 6.76Q275.51 7.43 275.51 8.20L275.51 8.20L275.51 8.20Q275.51 9.73 275.62 11.19L275.62 11.19L275.62 11.19Q275.74 12.66 276.18 14.17L276.18 14.17L276.18 14.17Q276.40 13.05 276.66 11.94L276.66 11.94L276.66 11.94Q276.92 10.82 277.20 9.81L277.20 9.81L277.20 9.81Q277.48 8.79 277.76 7.92L277.76 7.92L277.76 7.92Q278.04 7.06 278.30 6.40L278.30 6.40L278.30 6.40Q278.56 5.75 278.78 5.38L278.78 5.38L278.78 5.38Q279.01 5.01 279.19 4.98L279.19 4.98L279.19 4.98Q279.34 5.01 279.52 5.10L279.52 5.10L279.52 5.10Q279.71 5.19 279.87 5.32L279.87 5.32L279.87 5.32Q280.04 5.45 280.18 5.60L280.18 5.60L280.18 5.60Q280.32 5.75 280.41 5.91L280.41 5.91L280.41 5.91Q279.96 6.09 279.52 6.76L279.52 6.76L279.52 6.76Q279.08 7.43 278.68 8.39L278.68 8.39L278.68 8.39Q278.28 9.35 277.93 10.47L277.93 10.47L277.93 10.47Q277.59 11.59 277.33 12.68L277.33 12.68L277.33 12.68Q277.07 13.76 276.93 14.69L276.93 14.69L276.93 14.69Q276.78 15.61 276.77 16.17L276.77 16.17L276.77 16.17Q276.77 16.20 276.78 16.21L276.78 16.21L276.78 16.21Q276.74 16.23 276.69 16.23L276.69 16.23L276.69 16.23Q276.64 16.23 276.60 16.23L276.60 16.23L276.60 16.23Q275.95 16.23 275.46 16.07L275.46 16.07L275.46 16.07Q274.96 15.90 274.81 15.61L274.81 15.61L274.81 15.61Q274.51 14.43 274.32 13.34L274.32 13.34L274.32 13.34Q274.12 12.25 273.99 11.16L273.99 11.16L273.99 11.16Q273.85 10.07 273.78 8.95L273.78 8.95L273.78 8.95Q273.70 7.84 273.66 6.62L273.66 6.62L273.66 6.62Q273.39 7.04 273.10 7.72L273.10 7.72L273.10 7.72Q272.80 8.40 272.52 9.21L272.52 9.21L272.52 9.21Q272.24 10.02 271.98 10.92L271.98 10.92L271.98 10.92Q271.73 11.82 271.53 12.67L271.53 12.67L271.53 12.67Q271.33 13.52 271.22 14.29L271.22 14.29L271.22 14.29Q271.11 15.05 271.11 15.61L271.11 15.61L271.11 15.61Q271.11 15.90 271.12 16.03L271.12 16.03L271.12 16.03Q271.12 16.16 271.15 16.24ZM295.60 5.74L295.60 5.74L295.60 5.74Q295.64 5.98 295.66 6.07L295.66 6.07L295.66 6.07Q295.68 6.16 295.68 6.31L295.68 6.31L295.68 6.31Q295.68 6.78 295.48 7.18L295.48 7.18L295.48 7.18Q295.27 7.57 294.92 7.74L294.92 7.74L294.92 7.74Q294.64 7.36 294.24 7.09L294.24 7.09L294.24 7.09Q293.83 6.82 293.35 6.64L293.35 6.64L293.35 6.64Q292.87 6.47 292.35 6.38L292.35 6.38L292.35 6.38Q291.83 6.30 291.34 6.30L291.34 6.30L291.34 6.30Q290.85 6.30 290.42 6.38L290.42 6.38L290.42 6.38Q290.00 6.45 289.67 6.59L289.67 6.59L289.67 6.59Q289.34 6.72 289.15 6.92L289.15 6.92L289.15 6.92Q288.96 7.11 288.96 7.36L288.96 7.36L288.96 7.36Q289.00 7.67 289.34 7.99L289.34 7.99L289.34 7.99Q289.67 8.30 290.16 8.60L290.16 8.60L290.16 8.60Q290.65 8.90 291.25 9.20L291.25 9.20L291.25 9.20Q291.84 9.49 292.42 9.76L292.42 9.76L292.42 9.76Q293.13 10.09 293.65 10.38L293.65 10.38L293.65 10.38Q294.17 10.67 294.50 11.01L294.50 11.01L294.50 11.01Q294.84 11.35 295.01 11.79L295.01 11.79L295.01 11.79Q295.18 12.22 295.18 12.84L295.18 12.84L295.18 12.84Q295.18 13.55 294.94 14.18L294.94 14.18L294.94 14.18Q294.70 14.80 294.24 15.26L294.24 15.26L294.24 15.26Q293.79 15.72 293.15 15.98L293.15 15.98L293.15 15.98Q292.50 16.24 291.70 16.24L291.70 16.24L291.70 16.24Q290.92 16.24 290.01 16.00L290.01 16.00L290.01 16.00Q289.10 15.76 288.31 15.35L288.31 15.35L288.31 15.35Q287.52 14.94 286.99 14.40L286.99 14.40L286.99 14.40Q286.47 13.86 286.47 13.26L286.47 13.26L286.47 13.26Q286.47 12.98 286.63 12.54L286.63 12.54L286.63 12.54Q286.79 12.11 287.21 11.63L287.21 11.63L287.21 11.63Q287.25 12.05 287.66 12.63L287.66 12.63L287.66 12.63Q288.08 13.20 288.90 13.69L288.90 13.69L288.90 13.69Q289.67 14.14 290.49 14.34L290.49 14.34L290.49 14.34Q291.31 14.55 292.03 14.55L292.03 14.55L292.03 14.55Q292.81 14.55 293.30 14.35L293.30 14.35L293.30 14.35Q293.79 14.15 294.07 13.88L294.07 13.88L294.07 13.88Q294.35 13.61 294.46 13.33L294.46 13.33L294.46 13.33Q294.57 13.05 294.59 12.88L294.59 12.88L294.59 12.88Q294.57 12.60 294.33 12.34L294.33 12.34L294.33 12.34Q294.08 12.08 293.67 11.84L293.67 11.84L293.67 11.84Q293.26 11.59 292.71 11.34L292.71 11.34L292.71 11.34Q292.17 11.09 291.58 10.84L291.58 10.84L291.58 10.84Q290.70 10.44 290.06 10.10L290.06 10.10L290.06 10.10Q289.42 9.76 289.01 9.40L289.01 9.40L289.01 9.40Q288.60 9.04 288.41 8.65L288.41 8.65L288.41 8.65Q288.22 8.26 288.22 7.76L288.22 7.76L288.22 7.76Q288.22 6.97 288.69 6.27L288.69 6.27L288.69 6.27Q289.17 5.57 290.07 5.21L290.07 5.21L290.07 5.21Q290.51 5.01 291.02 4.93L291.02 4.93L291.02 4.93Q291.54 4.84 292.03 4.84L292.03 4.84L292.03 4.84Q292.95 4.84 293.83 5.10L293.83 5.10L293.83 5.10Q294.71 5.35 295.60 5.74ZM318.84 14.38L318.84 14.38L318.84 14.38Q319.19 14.98 319.19 15.54L319.19 15.54L319.19 15.54Q319.19 15.67 319.16 15.77L319.16 15.77L319.16 15.77Q319.14 15.88 319.12 15.99L319.12 15.99L319.12 15.99Q318.88 15.96 318.62 15.95L318.62 15.95L318.62 15.95Q318.36 15.93 318.08 15.93L318.08 15.93L318.08 15.93Q317.74 15.93 317.40 15.95L317.40 15.95L317.40 15.95Q317.06 15.97 316.64 16.02L316.64 16.02L316.64 16.02Q316.22 16.06 315.70 16.13L315.70 16.13L315.70 16.13Q315.18 16.20 314.50 16.31L314.50 16.31L314.50 16.31Q314.17 16.20 313.85 15.87L313.85 15.87L313.85 15.87Q313.53 15.54 313.25 15.08L313.25 15.08L313.25 15.08Q313.39 14.77 313.60 14.31L313.60 14.31L313.60 14.31Q313.81 13.86 314.09 13.21L314.09 13.21L314.09 13.21Q314.37 12.56 314.71 11.68L314.71 11.68L314.71 11.68Q315.06 10.81 315.45 9.66L315.45 9.66L315.45 9.66Q315.70 8.90 315.88 8.33L315.88 8.33L315.88 8.33Q316.06 7.76 316.21 7.22L316.21 7.22L316.21 7.22Q316.36 6.68 316.50 6.09L316.50 6.09L316.50 6.09Q316.64 5.50 316.81 4.73L316.81 4.73L316.81 4.73Q317.37 4.84 317.78 5.14L317.78 5.14L317.78 5.14Q318.19 5.45 318.57 6.01L318.57 6.01L318.57 6.01Q318.46 6.19 318.28 6.59L318.28 6.59L318.28 6.59Q318.09 7 317.85 7.58L317.85 7.58L317.85 7.58Q317.60 8.16 317.31 8.90L317.31 8.90L317.31 8.90Q317.02 9.63 316.69 10.47L316.69 10.47L316.69 10.47Q316.39 11.30 316.09 12.03L316.09 12.03L316.09 12.03Q315.80 12.75 315.57 13.34L315.57 13.34L315.57 13.34Q315.34 13.93 315.20 14.35L315.20 14.35L315.20 14.35Q315.06 14.77 315.06 14.98L315.06 14.98L315.06 14.98Q315.28 14.97 315.46 14.95L315.46 14.95L315.46 14.95Q315.64 14.94 315.84 14.90L315.84 14.90L315.84 14.90Q316.04 14.87 316.27 14.82L316.27 14.82L316.27 14.82Q316.50 14.77 316.82 14.69L316.82 14.69L316.82 14.69Q317.10 14.62 317.34 14.57L317.34 14.57L317.34 14.57Q317.58 14.52 317.81 14.48L317.81 14.48L317.81 14.48Q318.04 14.45 318.28 14.43L318.28 14.43L318.28 14.43Q318.53 14.41 318.84 14.38ZM333.26 9.21L333.26 9.21L333.26 9.21Q333.72 9.21 333.98 9.46L333.98 9.46L333.98 9.46Q334.24 9.72 334.24 10.16L334.24 10.16L334.24 10.16Q334.24 10.28 334.21 10.39L334.21 10.39L334.21 10.39Q334.19 10.51 334.17 10.60L334.17 10.60L334.17 10.60Q333.98 10.57 333.76 10.55L333.76 10.55L333.76 10.55Q333.54 10.53 333.23 10.53L333.23 10.53L333.23 10.53Q332.63 10.53 332.01 10.63L332.01 10.63L332.01 10.63Q331.39 10.74 330.83 10.81L330.83 10.81L330.83 10.81Q330.51 11.55 330.25 12.24L330.25 12.24L330.25 12.24Q329.98 12.94 329.79 13.51L329.79 13.51L329.79 13.51Q329.60 14.08 329.50 14.50L329.50 14.50L329.50 14.50Q329.39 14.92 329.38 15.13L329.38 15.13L329.38 15.13Q330.51 14.90 331.67 14.73L331.67 14.73L331.67 14.73Q332.82 14.56 334.10 14.48L334.10 14.48L334.10 14.48Q334.25 14.71 334.35 14.99L334.35 14.99L334.35 14.99Q334.46 15.27 334.46 15.60L334.46 15.60L334.46 15.60Q334.46 15.68 334.46 15.78L334.46 15.78L334.46 15.78Q334.46 15.88 334.43 15.97L334.43 15.97L334.43 15.97Q334.04 15.96 333.61 15.95L333.61 15.95L333.61 15.95Q333.17 15.95 332.47 15.95L332.47 15.95L332.47 15.95Q332.01 15.95 331.60 15.97L331.60 15.97L331.60 15.97Q331.18 15.99 330.76 16.03L330.76 16.03L330.76 16.03Q330.34 16.07 329.87 16.14L329.87 16.14L329.87 16.14Q329.41 16.21 328.82 16.31L328.82 16.31L328.82 16.31Q328.17 16.06 327.57 15.08L327.57 15.08L327.57 15.08Q327.81 14.57 328.24 13.54L328.24 13.54L328.24 13.54Q328.66 12.52 329.32 10.79L329.32 10.79L329.32 10.79Q328.69 10.60 328.50 10.09L328.50 10.09L328.50 10.09Q328.57 10.02 328.90 9.92L328.90 9.92L328.90 9.92Q329.24 9.81 329.73 9.70L329.73 9.70L329.73 9.70Q329.94 9.16 330.08 8.75L330.08 8.75L330.08 8.75Q330.23 8.34 330.34 7.99L330.34 7.99L330.34 7.99Q330.46 7.63 330.55 7.29L330.55 7.29L330.55 7.29Q330.64 6.94 330.72 6.54L330.72 6.54L330.72 6.54Q330.23 6.51 329.95 6.27L329.95 6.27L329.95 6.27Q329.67 6.02 329.67 5.63L329.67 5.63L329.67 5.63Q329.67 5.52 329.71 5.36L329.71 5.36L329.71 5.36Q329.74 5.21 329.78 5.10L329.78 5.10L329.78 5.10Q330.06 5.14 330.32 5.15L330.32 5.15L330.32 5.15Q330.58 5.17 331.00 5.17L331.00 5.17L331.00 5.17Q331.88 5.17 332.65 5.12L332.65 5.12L332.65 5.12Q333.42 5.07 334.05 5.01L334.05 5.01L334.05 5.01Q334.67 4.96 335.12 4.91L335.12 4.91L335.12 4.91Q335.57 4.86 335.80 4.86L335.80 4.86L335.80 4.86Q336.13 4.86 336.38 5.19L336.38 5.19L336.38 5.19Q336.63 5.53 336.76 6.15L336.76 6.15L336.76 6.15Q336.32 6.10 336.05 6.09L336.05 6.09L336.05 6.09Q335.78 6.08 335.57 6.08L335.57 6.08L335.57 6.08Q334.80 6.08 334.16 6.15L334.16 6.15L334.16 6.15Q333.52 6.23 332.93 6.31L332.93 6.31L332.93 6.31Q332.85 6.44 332.74 6.64L332.74 6.64L332.74 6.64Q332.64 6.83 332.47 7.18L332.47 7.18L332.47 7.18Q332.30 7.53 332.06 8.06L332.06 8.06L332.06 8.06Q331.81 8.60 331.46 9.39L331.46 9.39L331.46 9.39Q332.00 9.31 332.46 9.26L332.46 9.26L332.46 9.26Q332.93 9.21 333.26 9.21ZM362.87 7.63L362.87 7.63L362.87 7.63Q362.87 8.40 362.48 9.10L362.48 9.10L362.48 9.10Q362.10 9.80 361.44 10.32L361.44 10.32L361.44 10.32Q360.79 10.85 359.92 11.16L359.92 11.16L359.92 11.16Q359.04 11.47 358.06 11.47L358.06 11.47L358.06 11.47Q357.71 11.47 357.51 11.38L357.51 11.38L357.51 11.38Q357.31 11.28 357.06 11.02L357.06 11.02L357.06 11.02Q356.36 12.54 355.91 13.82L355.91 13.82L355.91 13.82Q355.47 15.11 355.22 16.31L355.22 16.31L355.22 16.31Q354.69 16.18 354.35 15.87L354.35 15.87L354.35 15.87Q354.02 15.55 353.74 15.08L353.74 15.08L353.74 15.08Q353.88 14.81 354.07 14.38L354.07 14.38L354.07 14.38Q354.27 13.94 354.55 13.31L354.55 13.31L354.55 13.31Q354.83 12.67 355.20 11.78L355.20 11.78L355.20 11.78Q355.57 10.89 356.08 9.70L356.08 9.70L356.08 9.70Q356.30 9.16 356.47 8.75L356.47 8.75L356.47 8.75Q356.64 8.34 356.76 7.99L356.76 7.99L356.76 7.99Q356.89 7.63 356.99 7.28L356.99 7.28L356.99 7.28Q357.10 6.93 357.21 6.51L357.21 6.51L357.21 6.51Q356.55 6.72 356.00 7L356.00 7L356.00 7Q355.45 7.28 355.08 7.59L355.08 7.59L355.08 7.59Q354.96 7.50 354.82 7.34L354.82 7.34L354.82 7.34Q354.69 7.17 354.58 6.96L354.58 6.96L354.58 6.96Q354.47 6.76 354.38 6.55L354.38 6.55L354.38 6.55Q354.30 6.34 354.28 6.17L354.28 6.17L354.28 6.17Q354.69 5.89 355.29 5.66L355.29 5.66L355.29 5.66Q355.89 5.42 356.58 5.24L356.58 5.24L356.58 5.24Q357.27 5.07 358.00 4.97L358.00 4.97L358.00 4.97Q358.74 4.87 359.41 4.87L359.41 4.87L359.41 4.87Q360.21 4.87 360.85 5.07L360.85 5.07L360.85 5.07Q361.49 5.28 361.94 5.64L361.94 5.64L361.94 5.64Q362.39 6.01 362.63 6.51L362.63 6.51L362.63 6.51Q362.87 7.01 362.87 7.63ZM360.37 5.95L360.37 5.95L360.37 5.95Q359.84 5.95 359.28 6.03L359.28 6.03L359.45 6.29L359.45 6.29Q359.31 6.47 359.10 6.83L359.10 6.83L359.10 6.83Q358.89 7.20 358.64 7.71L358.64 7.71L358.64 7.71Q358.39 8.22 358.08 8.85L358.08 8.85L358.08 8.85Q357.78 9.48 357.45 10.18L357.45 10.18L357.45 10.18Q358.54 10.18 359.44 9.97L359.44 9.97L359.44 9.97Q360.33 9.77 360.97 9.41L360.97 9.41L360.97 9.41Q361.61 9.06 361.96 8.58L361.96 8.58L361.96 8.58Q362.32 8.11 362.32 7.56L362.32 7.56L362.32 7.56Q362.32 6.83 361.83 6.39L361.83 6.39L361.83 6.39Q361.34 5.95 360.37 5.95ZM369.95 16.24L369.95 16.24L369.95 16.24Q369.28 16.04 369.02 15.85L369.02 15.85L369.02 15.85Q368.76 15.65 368.76 15.36L368.76 15.36L368.76 15.36Q368.76 15.13 368.89 14.73L368.89 14.73L368.89 14.73Q369.01 14.32 369.26 13.77L369.26 13.77L369.26 13.77Q369.50 13.22 369.84 12.54L369.84 12.54L369.84 12.54Q370.19 11.87 370.62 11.10L370.62 11.10L370.62 11.10Q370.26 11.09 369.97 11.08L369.97 11.08L369.97 11.08Q369.68 11.07 369.50 11.07L369.50 11.07L369.50 11.07Q369.59 10.86 369.98 10.71L369.98 10.71L369.98 10.71Q370.37 10.56 371.01 10.44L371.01 10.44L371.01 10.44Q371.56 9.53 372.18 8.71L372.18 8.71L372.18 8.71Q372.81 7.88 373.44 7.19L373.44 7.19L373.44 7.19Q374.07 6.50 374.70 5.97L374.70 5.97L374.70 5.97Q375.33 5.45 375.90 5.14L375.90 5.14L375.90 5.14Q375.91 5.04 375.92 4.97L375.92 4.97L375.92 4.97Q375.93 4.90 375.93 4.87L375.93 4.87L375.93 4.87Q376.12 4.87 376.45 4.97L376.45 4.97L376.45 4.97Q376.78 5.07 377.10 5.21L377.10 5.21L377.10 5.21Q377.41 5.35 377.66 5.49L377.66 5.49L377.66 5.49Q377.90 5.64 377.93 5.74L377.93 5.74L377.93 5.74Q377.47 6.55 377.02 8.17L377.02 8.17L377.02 8.17Q376.57 9.79 376.28 12.04L376.28 12.04L376.28 12.04Q376.21 12.60 376.16 13.31L376.16 13.31L376.16 13.31Q376.11 14.03 376.11 14.91L376.11 14.91L376.11 14.91Q376.11 15.22 376.11 15.54L376.11 15.54L376.11 15.54Q376.11 15.86 376.14 16.21L376.14 16.21L376.14 16.21Q376.11 16.23 376.08 16.23L376.08 16.23L376.08 16.23Q376.05 16.23 375.97 16.23L375.97 16.23L375.97 16.23Q375.77 16.23 375.51 16.16L375.51 16.16L375.51 16.16Q375.26 16.10 375.01 16.01L375.01 16.01L375.01 16.01Q374.77 15.92 374.59 15.81L374.59 15.81L374.59 15.81Q374.42 15.69 374.37 15.61L374.37 15.61L374.37 15.61Q374.36 15.43 374.36 15.25L374.36 15.25L374.36 15.25Q374.36 15.08 374.36 14.88L374.36 14.88L374.36 14.88Q374.36 14.01 374.42 13.12L374.42 13.12L374.42 13.12Q374.49 12.22 374.64 11.27L374.64 11.27L374.64 11.27Q374.44 11.26 374.12 11.23L374.12 11.23L374.12 11.23Q373.80 11.21 373.40 11.20L373.40 11.20L373.40 11.20Q373.00 11.19 372.55 11.16L372.55 11.16L372.55 11.16Q372.09 11.14 371.66 11.13L371.66 11.13L371.66 11.13Q371.32 11.76 371.03 12.38L371.03 12.38L371.03 12.38Q370.73 13.01 370.52 13.64L370.52 13.64L370.52 13.64Q370.29 14.31 370.14 14.98L370.14 14.98L370.14 14.98Q369.99 15.65 369.95 16.24ZM375.35 7.83L375.35 7.83L375.35 7.83Q375.41 7.63 375.49 7.29L375.49 7.29L375.49 7.29Q375.56 6.94 375.63 6.57L375.63 6.57L375.63 6.57Q375.28 6.69 374.86 7.03L374.86 7.03L374.86 7.03Q374.43 7.36 373.97 7.86L373.97 7.86L373.97 7.86Q373.52 8.36 373.05 8.98L373.05 8.98L373.05 8.98Q372.58 9.60 372.15 10.30L372.15 10.30L372.15 10.30Q373.32 10.21 374.82 10.18L374.82 10.18L374.82 10.18Q374.93 9.59 375.07 9.01L375.07 9.01L375.07 9.01Q375.20 8.43 375.35 7.83ZM394.83 7.46L394.83 7.46L394.83 7.46Q394.83 8.13 394.53 8.73L394.53 8.73L394.53 8.73Q394.23 9.32 393.69 9.79L393.69 9.79L393.69 9.79Q393.16 10.26 392.45 10.58L392.45 10.58L392.45 10.58Q391.73 10.91 390.89 11.02L390.89 11.02L390.89 11.02Q391.10 11.65 391.40 12.31L391.40 12.31L391.40 12.31Q391.71 12.98 392.06 13.59L392.06 13.59L392.06 13.59Q392.41 14.21 392.78 14.73L392.78 14.73L392.78 14.73Q393.16 15.25 393.53 15.58L393.53 15.58L393.53 15.58Q393.46 15.72 393.32 15.86L393.32 15.86L393.32 15.86Q393.19 16.00 393.01 16.12L393.01 16.12L393.01 16.12Q392.84 16.24 392.65 16.32L392.65 16.32L392.65 16.32Q392.46 16.39 392.29 16.39L392.29 16.39L392.29 16.39Q391.99 16.39 391.71 16.10L391.71 16.10L391.71 16.10Q391.43 15.81 391.14 15.17L391.14 15.17L391.14 15.17Q390.85 14.53 390.54 13.52L390.54 13.52L390.54 13.52Q390.22 12.50 389.84 11.07L389.84 11.07L389.84 11.07Q389.69 11.07 389.54 11.07L389.54 11.07L389.54 11.07Q389.38 11.07 389.30 11.05L389.30 11.05L389.30 11.05Q389.20 10.99 389.09 10.85L389.09 10.85L389.09 10.85Q388.71 11.66 388.42 12.38L388.42 12.38L388.42 12.38Q388.12 13.09 387.89 13.76L387.89 13.76L387.89 13.76Q387.66 14.42 387.48 15.04L387.48 15.04L387.48 15.04Q387.31 15.67 387.18 16.31L387.18 16.31L387.18 16.31Q386.71 16.20 386.36 15.90L386.36 15.90L386.36 15.90Q386.01 15.61 385.70 15.08L385.70 15.08L385.70 15.08Q385.76 14.95 385.82 14.83L385.82 14.83L385.82 14.83Q385.88 14.71 385.98 14.50L385.98 14.50L385.98 14.50Q386.08 14.28 386.22 13.94L386.22 13.94L386.22 13.94Q386.37 13.61 386.62 13.05L386.62 13.05L386.62 13.05Q386.86 12.49 387.20 11.68L387.20 11.68L387.20 11.68Q387.55 10.86 388.04 9.70L388.04 9.70L388.04 9.70Q388.26 9.18 388.42 8.79L388.42 8.79L388.42 8.79Q388.58 8.40 388.71 8.04L388.71 8.04L388.71 8.04Q388.84 7.69 388.94 7.33L388.94 7.33L388.94 7.33Q389.05 6.97 389.16 6.51L389.16 6.51L389.16 6.51Q388.51 6.73 387.96 7.01L387.96 7.01L387.96 7.01Q387.41 7.28 387.04 7.59L387.04 7.59L387.04 7.59Q386.92 7.50 386.78 7.34L386.78 7.34L386.78 7.34Q386.65 7.17 386.54 6.96L386.54 6.96L386.54 6.96Q386.43 6.76 386.34 6.55L386.34 6.55L386.34 6.55Q386.26 6.34 386.25 6.17L386.25 6.17L386.25 6.17Q386.67 5.89 387.27 5.66L387.27 5.66L387.27 5.66Q387.88 5.42 388.57 5.24L388.57 5.24L388.57 5.24Q389.26 5.07 389.97 4.97L389.97 4.97L389.97 4.97Q390.68 4.87 391.30 4.87L391.30 4.87L391.30 4.87Q392.98 4.87 393.90 5.56L393.90 5.56L393.90 5.56Q394.83 6.26 394.83 7.46ZM391.24 6.02L391.41 6.29L391.41 6.29Q391.31 6.41 391.10 6.79L391.10 6.79L391.10 6.79Q390.89 7.17 390.62 7.69L390.62 7.69L390.62 7.69Q390.35 8.22 390.05 8.83L390.05 8.83L390.05 8.83Q389.75 9.45 389.47 10.05L389.47 10.05L389.47 10.05Q390.52 10.05 391.40 9.86L391.40 9.86L391.40 9.86Q392.28 9.66 392.92 9.30L392.92 9.30L392.92 9.30Q393.57 8.95 393.92 8.46L393.92 8.46L393.92 8.46Q394.28 7.98 394.28 7.39L394.28 7.39L394.28 7.39Q394.28 6.69 393.78 6.32L393.78 6.32L393.78 6.32Q393.27 5.95 392.22 5.95L392.22 5.95L392.22 5.95Q391.99 5.95 391.75 5.97L391.75 5.97L391.75 5.97Q391.51 5.99 391.24 6.02L391.24 6.02ZM405.24 10.74L405.24 10.74L405.24 10.74Q406.11 9.45 406.96 8.37L406.96 8.37L406.96 8.37Q407.81 7.28 408.58 6.50L408.58 6.50L408.58 6.50Q409.35 5.71 409.99 5.28L409.99 5.28L409.99 5.28Q410.63 4.84 411.11 4.84L411.11 4.84L411.11 4.84Q411.29 4.84 411.51 4.98L411.51 4.98L411.51 4.98Q411.73 5.12 411.91 5.35L411.91 5.35L411.91 5.35Q412.10 5.57 412.23 5.83L412.23 5.83L412.23 5.83Q412.36 6.09 412.36 6.33L412.36 6.33L412.36 6.33Q411.49 6.61 410.65 7.06L410.65 7.06L410.65 7.06Q409.82 7.52 409.06 8.11L409.06 8.11L409.06 8.11Q408.30 8.71 407.60 9.44L407.60 9.44L407.60 9.44Q406.91 10.16 406.35 10.99L406.35 10.99L406.35 10.99Q406.57 11.56 406.90 12.21L406.90 12.21L406.90 12.21Q407.23 12.87 407.62 13.47L407.62 13.47L407.62 13.47Q408.02 14.08 408.46 14.60L408.46 14.60L408.46 14.60Q408.91 15.12 409.37 15.43L409.37 15.43L409.37 15.43Q409.30 15.58 409.14 15.72L409.14 15.72L409.14 15.72Q408.97 15.86 408.77 15.98L408.77 15.98L408.77 15.98Q408.58 16.10 408.36 16.17L408.36 16.17L408.36 16.17Q408.14 16.24 407.96 16.24L407.96 16.24L407.96 16.24Q407.60 16.24 407.29 15.90L407.29 15.90L407.29 15.90Q406.98 15.55 406.66 14.86L406.66 14.86L406.66 14.86Q406.35 14.17 406.01 13.14L406.01 13.14L406.01 13.14Q405.66 12.11 405.24 10.74ZM403.13 16.31L403.13 16.31L403.13 16.31Q402.60 16.18 402.25 15.87L402.25 15.87L402.25 15.87Q401.90 15.55 401.60 15.08L401.60 15.08L401.60 15.08Q401.73 14.81 401.90 14.38L401.90 14.38L401.90 14.38Q402.08 13.94 402.33 13.31L402.33 13.31L402.33 13.31Q402.58 12.67 402.93 11.78L402.93 11.78L402.93 11.78Q403.28 10.89 403.75 9.70L403.75 9.70L403.75 9.70Q404.04 8.95 404.23 8.43L404.23 8.43L404.23 8.43Q404.42 7.91 404.55 7.41L404.55 7.41L404.55 7.41Q404.68 6.92 404.81 6.31L404.81 6.31L404.81 6.31Q404.94 5.71 405.10 4.79L405.10 4.79L405.10 4.79Q405.69 4.90 406.17 5.31L406.17 5.31L406.17 5.31Q406.66 5.71 407.01 6.29L407.01 6.29L407.01 6.29Q406.85 6.48 406.65 6.88L406.65 6.88L406.65 6.88Q406.45 7.28 406.20 7.84L406.20 7.84L406.20 7.84Q405.94 8.40 405.64 9.09L405.64 9.09L405.64 9.09Q405.33 9.77 404.99 10.54L404.99 10.54L404.99 10.54Q404.24 12.22 403.80 13.62L403.80 13.62L403.80 13.62Q403.37 15.01 403.13 16.31ZM418.38 14.38L418.38 14.38L418.38 14.38Q418.38 13.87 418.54 13.07L418.54 13.07L418.54 13.07Q418.70 12.26 418.96 11.33L418.96 11.33L418.96 11.33Q419.22 10.40 419.55 9.43L419.55 9.43L419.55 9.43Q419.89 8.46 420.24 7.60L420.24 7.60L420.24 7.60Q420.59 6.75 420.92 6.10L420.92 6.10L420.92 6.10Q421.26 5.46 421.53 5.18L421.53 5.18L421.53 5.18Q421.67 5.19 421.90 5.29L421.90 5.29L421.90 5.29Q422.13 5.38 422.37 5.50L422.37 5.50L422.37 5.50Q422.60 5.63 422.80 5.78L422.80 5.78L422.80 5.78Q423.00 5.92 423.05 6.05L423.05 6.05L423.05 6.05Q422.65 6.41 422.25 7.15L422.25 7.15L422.25 7.15Q421.85 7.88 421.48 8.82L421.48 8.82L421.48 8.82Q421.11 9.76 420.78 10.80L420.78 10.80L420.78 10.80Q420.46 11.84 420.22 12.82L420.22 12.82L420.22 12.82Q419.99 13.80 419.85 14.64L419.85 14.64L419.85 14.64Q419.72 15.48 419.72 16.00L419.72 16.00L419.72 16.00Q419.72 16.24 419.76 16.30L419.76 16.30L419.76 16.30Q419.45 16.28 419.31 16.19L419.31 16.19L419.31 16.19Q419.17 16.10 419.10 16.00L419.10 16.00L419.10 16.00Q419.02 15.89 418.96 15.79L418.96 15.79L418.96 15.79Q418.89 15.68 418.77 15.62L418.77 15.62L418.77 15.62Q418.67 15.58 418.60 15.43L418.60 15.43L418.60 15.43Q418.53 15.27 418.48 15.09L418.48 15.09L418.48 15.09Q418.43 14.90 418.40 14.70L418.40 14.70L418.40 14.70Q418.38 14.50 418.38 14.38ZM430.61 16.24L430.61 16.24L430.61 16.24Q429.81 16.00 429.53 15.79L429.53 15.79L429.53 15.79Q429.25 15.57 429.25 15.19L429.25 15.19L429.25 15.19Q429.25 14.77 429.45 14.01L429.45 14.01L429.45 14.01Q429.65 13.24 429.96 12.31L429.96 12.31L429.96 12.31Q430.28 11.37 430.68 10.35L430.68 10.35L430.68 10.35Q431.09 9.32 431.51 8.39L431.51 8.39L431.51 8.39Q431.93 7.45 432.33 6.67L432.33 6.67L432.33 6.67Q432.73 5.89 433.03 5.46L433.03 5.46L432.94 4.87L432.94 4.87Q433.13 4.87 433.48 4.97L433.48 4.97L433.48 4.97Q433.83 5.07 434.19 5.21L434.19 5.21L434.19 5.21Q434.55 5.35 434.82 5.49L434.82 5.49L434.82 5.49Q435.09 5.64 435.12 5.74L435.12 5.74L435.12 5.74Q435.05 6.08 435.01 6.76L435.01 6.76L435.01 6.76Q434.97 7.43 434.97 8.20L434.97 8.20L434.97 8.20Q434.97 9.73 435.08 11.19L435.08 11.19L435.08 11.19Q435.20 12.66 435.64 14.17L435.64 14.17L435.64 14.17Q435.86 13.05 436.12 11.94L436.12 11.94L436.12 11.94Q436.38 10.82 436.66 9.81L436.66 9.81L436.66 9.81Q436.94 8.79 437.22 7.92L437.22 7.92L437.22 7.92Q437.50 7.06 437.76 6.40L437.76 6.40L437.76 6.40Q438.02 5.75 438.24 5.38L438.24 5.38L438.24 5.38Q438.47 5.01 438.65 4.98L438.65 4.98L438.65 4.98Q438.80 5.01 438.98 5.10L438.98 5.10L438.98 5.10Q439.17 5.19 439.33 5.32L439.33 5.32L439.33 5.32Q439.50 5.45 439.64 5.60L439.64 5.60L439.64 5.60Q439.78 5.75 439.87 5.91L439.87 5.91L439.87 5.91Q439.42 6.09 438.98 6.76L438.98 6.76L438.98 6.76Q438.54 7.43 438.14 8.39L438.14 8.39L438.14 8.39Q437.74 9.35 437.39 10.47L437.39 10.47L437.39 10.47Q437.05 11.59 436.79 12.68L436.79 12.68L436.79 12.68Q436.53 13.76 436.39 14.69L436.39 14.69L436.39 14.69Q436.24 15.61 436.23 16.17L436.23 16.17L436.23 16.17Q436.23 16.20 436.24 16.21L436.24 16.21L436.24 16.21Q436.20 16.23 436.15 16.23L436.15 16.23L436.15 16.23Q436.10 16.23 436.06 16.23L436.06 16.23L436.06 16.23Q435.41 16.23 434.92 16.07L434.92 16.07L434.92 16.07Q434.42 15.90 434.27 15.61L434.27 15.61L434.27 15.61Q433.97 14.43 433.78 13.34L433.78 13.34L433.78 13.34Q433.58 12.25 433.45 11.16L433.45 11.16L433.45 11.16Q433.31 10.07 433.24 8.95L433.24 8.95L433.24 8.95Q433.16 7.84 433.12 6.62L433.12 6.62L433.12 6.62Q432.85 7.04 432.56 7.72L432.56 7.72L432.56 7.72Q432.26 8.40 431.98 9.21L431.98 9.21L431.98 9.21Q431.70 10.02 431.44 10.92L431.44 10.92L431.44 10.92Q431.19 11.82 430.99 12.67L430.99 12.67L430.99 12.67Q430.79 13.52 430.68 14.29L430.68 14.29L430.68 14.29Q430.57 15.05 430.57 15.61L430.57 15.61L430.57 15.61Q430.57 15.90 430.58 16.03L430.58 16.03L430.58 16.03Q430.58 16.16 430.61 16.24ZM453.68 10.72L453.68 10.72L453.68 10.72Q454.05 10.72 454.26 10.98L454.26 10.98L454.26 10.98Q454.47 11.23 454.47 11.68L454.47 11.68L454.47 11.68Q454.47 11.79 454.45 11.91L454.45 11.91L454.45 11.91Q454.44 12.03 454.41 12.11L454.41 12.11L454.41 12.11Q454.12 12.04 453.77 12.03L453.77 12.03L453.77 12.03Q453.68 12.64 453.32 13.32L453.32 13.32L453.32 13.32Q452.96 14 452.44 14.60L452.44 14.60L452.44 14.60Q451.92 15.19 451.30 15.64L451.30 15.64L451.30 15.64Q450.69 16.09 450.09 16.24L450.09 16.24L450.09 16.24Q448.21 16.20 447.35 15.27L447.35 15.27L447.35 15.27Q446.49 14.34 446.49 12.36L446.49 12.36L446.49 12.36Q446.49 10.92 447.02 9.57L447.02 9.57L447.02 9.57Q447.55 8.22 448.43 7.17L448.43 7.17L448.43 7.17Q449.32 6.12 450.46 5.48L450.46 5.48L450.46 5.48Q451.60 4.84 452.83 4.84L452.83 4.84L452.83 4.84Q453.80 4.84 454.33 5.25L454.33 5.25L454.33 5.25Q454.87 5.66 454.87 6.40L454.87 6.40L454.87 6.40Q454.87 6.89 454.64 7.31L454.64 7.31L454.64 7.31Q454.41 7.73 453.88 8.22L453.88 8.22L453.88 8.22Q453.56 8.12 453.32 7.88L453.32 7.88L453.32 7.88Q453.08 7.63 453.03 7.31L453.03 7.31L453.03 7.31Q453.50 6.96 453.70 6.66L453.70 6.66L453.70 6.66Q453.89 6.37 453.89 5.96L453.89 5.96L453.89 5.96Q453.89 5.32 453.12 5.32L453.12 5.32L453.12 5.32Q452.49 5.32 451.77 5.79L451.77 5.79L451.77 5.79Q451.05 6.26 450.32 7.14L450.32 7.14L450.32 7.14Q449.29 8.39 448.81 9.71L448.81 9.71L448.81 9.71Q448.34 11.03 448.34 12.68L448.34 12.68L448.34 12.68Q448.34 13.30 448.46 13.80L448.46 13.80L448.46 13.80Q448.59 14.31 448.80 14.69L448.80 14.69L448.80 14.69Q449.01 15.06 449.29 15.29L449.29 15.29L449.29 15.29Q449.58 15.51 449.92 15.54L449.92 15.54L449.92 15.54Q450.37 15.44 450.81 15.09L450.81 15.09L450.81 15.09Q451.26 14.73 451.63 14.25L451.63 14.25L451.63 14.25Q452.00 13.76 452.26 13.21L452.26 13.21L452.26 13.21Q452.52 12.66 452.58 12.15L452.58 12.15L452.58 12.15Q452.19 12.24 451.83 12.31L451.83 12.31L451.83 12.31Q451.47 12.39 451.15 12.39L451.15 12.39L451.15 12.39Q450.73 12.39 450.41 12.18L450.41 12.18L450.41 12.18Q450.10 11.97 449.99 11.61L449.99 11.61L449.99 11.61Q450.24 11.47 450.72 11.31L450.72 11.31L450.72 11.31Q451.21 11.16 451.75 11.03L451.75 11.03L451.75 11.03Q452.30 10.89 452.82 10.81L452.82 10.81L452.82 10.81Q453.35 10.72 453.68 10.72Z"></path></g></svg>