<svg data-v-423bf9ae="" xmlns="http://www.w3.org/2000/svg" viewBox="0 0 565.4018391117675 60" class="font"><!----><!----><!----><g data-v-423bf9ae="" id="cf71814e-4df7-4a6c-a77d-91e826b78596" fill="black" transform="matrix(5.607476235685528,0,0,5.607476235685528,-1.0093531408522267,-22.093457166300503)"><path d="M5.50 9.96L5.50 9.96Q5.03 10.22 4.52 10.35L4.52 10.35L4.52 10.35Q4.00 10.48 3.64 10.48L3.64 10.48L3.64 10.48Q3.27 10.48 3.08 10.47L3.08 10.47L3.08 10.47Q3.08 10.85 3.09 11.21L3.09 11.21L3.09 11.21Q3.09 11.57 3.03 11.91L3.03 11.91L3.03 11.91Q2.89 12.66 2.35 13.15L2.35 13.15L4.50 13.14L4.50 13.14Q4.41 13.16 4.24 13.31L4.24 13.31L4.24 13.31Q4.07 13.46 3.87 13.63L3.87 13.63L3.87 13.63Q3.36 14.08 3.18 14.08L3.18 14.08L1.01 14.08L1.01 14.08Q1.48 13.65 1.60 13.36L1.60 13.36L1.60 13.36Q1.75 12.95 1.75 12.25L1.75 12.25L1.75 5.17L0.18 5.17L0.18 5.17Q1.26 4.25 1.50 4.25L1.50 4.25L5.17 4.25L5.17 4.25Q6.38 4.25 7.21 4.84L7.21 4.84L7.21 4.84Q8.13 5.50 8.13 6.68L8.13 6.68L8.13 6.68Q8.13 7.75 7.29 8.65L7.29 8.65L7.29 8.65Q6.71 9.28 5.50 9.96L5.50 9.96ZM6.81 7.57L6.81 7.57L6.81 7.57Q6.81 5.17 3.38 5.17L3.38 5.17L3.08 5.17L3.08 9.22L3.08 9.22Q3.34 9.24 3.78 9.35L3.78 9.35L3.78 9.35Q4.57 9.54 5.01 9.54L5.01 9.54L5.01 9.54Q5.46 9.54 5.81 9.43L5.81 9.43L5.81 9.43Q6.17 9.32 6.38 9.08L6.38 9.08L6.38 9.08Q6.81 8.63 6.81 7.57ZM11.40 5.17L11.40 11.98L11.40 11.98Q11.40 12.74 10.86 13.15L10.86 13.15L14.72 13.15L14.72 13.15Q15.27 13.15 15.56 13.02L15.56 13.02L15.56 13.02Q15.84 12.89 15.98 12.78L15.98 12.78L15.98 12.78Q15.16 13.79 14.23 14.03L14.23 14.03L14.23 14.03Q14.03 14.08 13.82 14.08L13.82 14.08L9.39 14.08L9.39 14.08Q9.77 13.71 9.88 13.47L9.88 13.47L9.88 13.47Q10.07 13.03 10.07 12.45L10.07 12.45L10.07 5.17L8.79 5.17L9.05 4.96L9.05 4.96Q9.93 4.25 10.12 4.25L10.12 4.25L13.23 4.25L13.23 4.25Q13.16 4.25 12.82 4.54L12.82 4.54L12.82 4.54Q12.49 4.83 12.36 4.94L12.36 4.94L12.36 4.94Q12.04 5.17 11.91 5.17L11.91 5.17L11.40 5.17ZM17.14 13.16L17.14 13.16L17.14 13.16Q17.19 13.15 17.68 13.15L17.68 13.15L17.68 13.15Q18.54 13.15 18.95 13.02L18.95 13.02L18.95 13.02Q19.35 12.89 19.53 12.78L19.53 12.78L19.53 12.78Q19.28 12.97 19.07 13.14L19.07 13.14L19.07 13.14Q18.61 13.49 18.33 13.65L18.33 13.65L18.33 13.65Q18.05 13.81 17.78 13.89L17.78 13.89L17.78 13.89Q17.51 13.98 17.22 14.02L17.22 14.02L17.22 14.02Q16.80 14.08 16.06 14.08L16.06 14.08L15.80 14.08L15.80 14.08Q15.80 14.08 15.81 14.07L15.81 14.07L15.81 14.07Q15.81 14.06 15.90 13.96L15.90 13.96L15.90 13.96Q16.00 13.86 16.17 13.66L16.17 13.66L16.17 13.66Q16.35 13.47 16.65 13.08L16.65 13.08L16.65 13.08Q16.94 12.69 17.28 12.07L17.28 12.07L17.28 12.07Q17.63 11.46 17.93 10.82L17.93 10.82L17.93 10.82Q18.22 10.18 18.50 9.52L18.50 9.52L18.50 9.52Q18.77 8.87 19.06 8.21L19.06 8.21L19.06 8.21Q19.35 7.55 19.65 6.87L19.65 6.87L19.65 6.87Q19.95 6.20 20.11 5.82L20.11 5.82L20.11 5.82Q20.26 5.43 20.29 5.34L20.29 5.34L20.29 5.34Q20.31 5.24 20.36 5.17L20.36 5.17L19.84 5.17L19.84 5.17Q18.57 5.17 17.87 5.46L17.87 5.46L17.87 5.46Q18.81 4.64 19.45 4.43L19.45 4.43L19.45 4.43Q20.03 4.25 21.33 4.25L21.33 4.25L21.70 4.25L21.70 4.25Q21.99 5.22 22.29 6.23L22.29 6.23L22.29 6.23Q22.59 7.23 22.89 8.24L22.89 8.24L22.89 8.24Q23.54 10.42 23.87 11.41L23.87 11.41L23.87 11.41Q24.21 12.39 24.26 12.58L24.26 12.58L24.26 12.58Q24.32 12.77 24.41 12.92L24.41 12.92L24.41 12.92Q24.61 13.25 25.05 13.25L25.05 13.25L25.05 13.25Q25.29 13.25 25.55 13.14L25.55 13.14L25.55 13.14Q25.81 13.03 25.96 12.94L25.96 12.94L25.96 12.94Q25.71 13.13 25.52 13.28L25.52 13.28L25.52 13.28Q25.03 13.65 24.89 13.74L24.89 13.74L24.89 13.74Q24.75 13.82 24.62 13.90L24.62 13.90L24.62 13.90Q24.48 13.99 24.33 14.05L24.33 14.05L24.33 14.05Q23.37 14.48 23.04 13.73L23.04 13.73L23.04 13.73Q22.80 13.21 22.46 12.05L22.46 12.05L22.46 12.05Q22.13 10.89 21.87 10.08L21.87 10.08L21.87 10.08Q21.29 10.49 19.37 10.46L19.37 10.46L19.37 10.46Q19.12 10.46 18.94 10.46L18.94 10.46L18.94 10.46Q18.17 12.00 17.44 12.82L17.44 12.82L17.44 12.82Q17.38 12.89 17.32 12.96L17.32 12.96L17.32 12.96Q17.14 13.17 17.14 13.16ZM19.48 9.51L19.48 9.51L20.83 9.54L20.83 9.54Q21.25 9.54 21.69 9.51L21.69 9.51L21.69 9.51Q21.38 8.51 20.75 6.45L20.75 6.45L20.75 6.45Q20.08 8.00 19.38 9.53L19.38 9.53L19.38 9.53Q19.46 9.51 19.48 9.51ZM34.00 4.10L34.00 4.10L34.00 4.10Q34.50 4.23 34.63 4.29L34.63 4.29L34.63 4.29Q34.77 4.35 34.77 4.41L34.77 4.41L34.77 4.41Q34.77 4.47 34.66 4.57L34.66 4.57L34.66 4.57Q34.55 4.68 34.38 4.80L34.38 4.80L34.38 4.80Q34.22 4.93 34.02 5.07L34.02 5.07L34.02 5.07Q33.82 5.22 33.65 5.33L33.65 5.33L33.65 5.33Q33.22 5.61 33.14 5.64L33.14 5.64L33.14 5.64Q33.15 5.61 33.24 5.54L33.24 5.54L33.24 5.54Q33.42 5.39 33.42 5.36L33.42 5.36L33.42 5.36Q33.42 5.32 33.39 5.29L33.39 5.29L33.39 5.29Q33.36 5.27 33.32 5.25L33.32 5.25L33.32 5.25Q33.28 5.24 33.25 5.22L33.25 5.22L33.25 5.22Q33.22 5.21 32.99 5.13L32.99 5.13L32.99 5.13Q32.45 4.92 31.44 4.92L31.44 4.92L31.44 4.92Q30.43 4.92 29.69 5.15L29.69 5.15L29.69 5.15Q28.96 5.39 28.44 5.87L28.44 5.87L28.44 5.87Q27.38 6.86 27.38 8.75L27.38 8.75L27.38 8.75Q27.38 10.67 28.44 12.00L28.44 12.00L28.44 12.00Q29.57 13.42 31.42 13.42L31.42 13.42L31.42 13.42Q32.64 13.42 34.42 12.64L34.42 12.64L34.42 12.64Q34.36 12.69 34.32 12.73L34.32 12.73L34.32 12.73Q34.25 12.80 34.15 12.89L34.15 12.89L34.15 12.89Q32.16 14.38 30.02 14.38L30.02 14.38L30.02 14.38Q28.18 14.38 27.08 12.99L27.08 12.99L27.08 12.99Q26.07 11.70 26.07 9.78L26.07 9.78L26.07 9.78Q26.07 8.80 26.36 8.12L26.36 8.12L26.36 8.12Q26.65 7.44 27.04 6.90L27.04 6.90L27.04 6.90Q27.43 6.37 27.92 5.92L27.92 5.92L27.92 5.92Q28.42 5.47 28.99 5.11L28.99 5.11L28.99 5.11Q29.57 4.75 30.19 4.50L30.19 4.50L30.19 4.50Q31.47 3.98 32.77 3.98L32.77 3.98L32.77 3.98Q33.50 3.98 34.00 4.10ZM36.63 5.17L35.35 5.17L35.35 5.17Q36.48 4.25 36.67 4.25L36.67 4.25L42.32 4.25L42.32 4.25Q42.25 4.25 41.88 4.57L41.88 4.57L41.88 4.57Q41.51 4.89 41.31 5.03L41.31 5.03L41.31 5.03Q41.12 5.17 41.00 5.17L41.00 5.17L37.96 5.17L37.96 8.49L41.28 8.49L41.28 8.49Q41.20 8.50 41.03 8.64L41.03 8.64L41.03 8.64Q40.86 8.79 40.65 8.96L40.65 8.96L40.65 8.96Q40.11 9.42 39.94 9.42L39.94 9.42L37.96 9.42L37.96 11.65L37.96 11.65Q37.96 12.41 37.73 12.89L37.73 12.89L37.73 12.89Q37.64 13.08 37.50 13.15L37.50 13.15L41.30 13.15L41.30 13.15Q41.69 13.15 42.10 12.97L42.10 12.97L42.53 12.80L42.53 12.80Q42.18 13.21 41.04 13.82L41.04 13.82L41.04 13.82Q40.54 14.08 40.37 14.08L40.37 14.08L36.01 14.08L36.01 14.08Q36.63 13.25 36.63 12.45L36.63 12.45L36.63 9.42L35.67 9.42L35.67 9.42Q36.26 8.94 36.63 8.67L36.63 8.67L36.63 5.17ZM45.96 5.17L42.38 5.17L42.38 5.17Q43.52 4.25 43.71 4.25L43.71 4.25L51.42 4.25L51.42 4.25Q51.33 4.26 51.00 4.55L51.00 4.55L51.00 4.55Q50.67 4.83 50.54 4.94L50.54 4.94L50.54 4.94Q50.23 5.17 50.09 5.17L50.09 5.17L47.29 5.17L47.29 11.43L47.29 11.43Q47.29 12.26 47.01 12.80L47.01 12.80L47.01 12.80Q46.89 13.03 46.74 13.15L46.74 13.15L48.99 13.15L48.99 13.15Q48.90 13.17 48.57 13.45L48.57 13.45L48.57 13.45Q48.24 13.74 48.11 13.84L48.11 13.84L48.11 13.84Q47.80 14.08 47.66 14.08L47.66 14.08L45.28 14.08L45.28 14.08Q45.69 13.71 45.79 13.46L45.79 13.46L45.79 13.46Q45.96 13.06 45.96 12.45L45.96 12.45L45.96 5.17ZM61.60 8.38L61.60 8.38L61.60 8.38Q61.60 9.08 61.36 9.85L61.36 9.85L61.36 9.85Q61.12 10.62 60.70 11.32L60.70 11.32L60.70 11.32Q60.28 12.02 59.70 12.63L59.70 12.63L59.70 12.63Q59.12 13.24 58.43 13.69L58.43 13.69L58.43 13.69Q56.97 14.64 55.45 14.64L55.45 14.64L55.45 14.64Q53.29 14.64 52.04 13.38L52.04 13.38L52.04 13.38Q50.77 12.13 50.77 9.99L50.77 9.99L50.77 9.99Q50.77 8.37 51.67 6.95L51.67 6.95L51.67 6.95Q52.51 5.58 53.94 4.77L53.94 4.77L53.94 4.77Q55.38 3.94 57.00 3.94L57.00 3.94L57.00 3.94Q58.88 3.94 60.22 5.18L60.22 5.18L60.22 5.18Q61.60 6.45 61.60 8.38ZM60.27 9.47L60.27 9.47L60.27 9.47Q60.27 8.52 59.93 7.66L59.93 7.66L59.93 7.66Q59.60 6.79 58.99 6.18L58.99 6.18L58.99 6.18Q57.72 4.90 55.61 4.90L55.61 4.90L55.61 4.90Q52.86 4.90 52.28 7.22L52.28 7.22L52.28 7.22Q52.10 7.95 52.10 8.96L52.10 8.96L52.10 8.96Q52.10 9.96 52.41 10.86L52.41 10.86L52.41 10.86Q52.73 11.76 53.33 12.40L53.33 12.40L53.33 12.40Q54.58 13.73 56.80 13.73L56.80 13.73L56.80 13.73Q58.57 13.73 59.47 12.50L59.47 12.50L59.47 12.50Q60.27 11.42 60.27 9.47ZM67.60 9.96L67.60 9.96Q67.13 10.22 66.61 10.35L66.61 10.35L66.61 10.35Q66.10 10.48 65.73 10.48L65.73 10.48L65.73 10.48Q65.37 10.48 65.18 10.47L65.18 10.47L65.18 10.47Q65.18 10.85 65.18 11.21L65.18 11.21L65.18 11.21Q65.19 11.57 65.13 11.91L65.13 11.91L65.13 11.91Q64.99 12.66 64.45 13.15L64.45 13.15L66.60 13.14L66.60 13.14Q66.51 13.16 66.34 13.31L66.34 13.31L66.34 13.31Q66.17 13.46 65.97 13.63L65.97 13.63L65.97 13.63Q65.45 14.08 65.28 14.08L65.28 14.08L63.11 14.08L63.11 14.08Q63.58 13.65 63.70 13.36L63.70 13.36L63.70 13.36Q63.85 12.95 63.85 12.25L63.85 12.25L63.85 5.17L62.28 5.17L62.28 5.17Q63.36 4.25 63.60 4.25L63.60 4.25L67.27 4.25L67.27 4.25Q68.48 4.25 69.31 4.84L69.31 4.84L69.31 4.84Q70.23 5.50 70.23 6.68L70.23 6.68L70.23 6.68Q70.23 7.75 69.38 8.65L69.38 8.65L69.38 8.65Q68.81 9.28 67.60 9.96L67.60 9.96ZM68.91 7.57L68.91 7.57L68.91 7.57Q68.91 5.17 65.47 5.17L65.47 5.17L65.18 5.17L65.18 9.22L65.18 9.22Q65.43 9.24 65.88 9.35L65.88 9.35L65.88 9.35Q66.66 9.54 67.11 9.54L67.11 9.54L67.11 9.54Q67.56 9.54 67.91 9.43L67.91 9.43L67.91 9.43Q68.26 9.32 68.48 9.08L68.48 9.08L68.48 9.08Q68.91 8.63 68.91 7.57ZM71.00 13.16L71.00 13.16L71.00 13.16Q71.05 13.15 71.54 13.15L71.54 13.15L71.54 13.15Q72.40 13.15 72.81 13.02L72.81 13.02L72.81 13.02Q73.21 12.89 73.39 12.78L73.39 12.78L73.39 12.78Q73.14 12.97 72.93 13.14L72.93 13.14L72.93 13.14Q72.47 13.49 72.19 13.65L72.19 13.65L72.19 13.65Q71.91 13.81 71.64 13.89L71.64 13.89L71.64 13.89Q71.37 13.98 71.08 14.02L71.08 14.02L71.08 14.02Q70.66 14.08 69.92 14.08L69.92 14.08L69.66 14.08L69.66 14.08Q69.67 14.08 69.67 14.07L69.67 14.07L69.67 14.07Q69.67 14.06 69.76 13.96L69.76 13.96L69.76 13.96Q69.86 13.86 70.03 13.66L70.03 13.66L70.03 13.66Q70.21 13.47 70.51 13.08L70.51 13.08L70.51 13.08Q70.80 12.69 71.15 12.07L71.15 12.07L71.15 12.07Q71.49 11.46 71.79 10.82L71.79 10.82L71.79 10.82Q72.08 10.18 72.36 9.52L72.36 9.52L72.36 9.52Q72.63 8.87 72.92 8.21L72.92 8.21L72.92 8.21Q73.21 7.55 73.51 6.87L73.51 6.87L73.51 6.87Q73.81 6.20 73.97 5.82L73.97 5.82L73.97 5.82Q74.12 5.43 74.15 5.34L74.15 5.34L74.15 5.34Q74.17 5.24 74.22 5.17L74.22 5.17L73.71 5.17L73.71 5.17Q72.43 5.17 71.73 5.46L71.73 5.46L71.73 5.46Q72.67 4.64 73.31 4.43L73.31 4.43L73.31 4.43Q73.89 4.25 75.20 4.25L75.20 4.25L75.56 4.25L75.56 4.25Q75.85 5.22 76.15 6.23L76.15 6.23L76.15 6.23Q76.45 7.23 76.75 8.24L76.75 8.24L76.75 8.24Q77.40 10.42 77.73 11.41L77.73 11.41L77.73 11.41Q78.07 12.39 78.12 12.58L78.12 12.58L78.12 12.58Q78.18 12.77 78.27 12.92L78.27 12.92L78.27 12.92Q78.47 13.25 78.91 13.25L78.91 13.25L78.91 13.25Q79.15 13.25 79.41 13.14L79.41 13.14L79.41 13.14Q79.67 13.03 79.82 12.94L79.82 12.94L79.82 12.94Q79.57 13.13 79.38 13.28L79.38 13.28L79.38 13.28Q78.89 13.65 78.75 13.74L78.75 13.74L78.75 13.74Q78.61 13.82 78.48 13.90L78.48 13.90L78.48 13.90Q78.34 13.99 78.19 14.05L78.19 14.05L78.19 14.05Q77.23 14.48 76.90 13.73L76.90 13.73L76.90 13.73Q76.66 13.21 76.32 12.05L76.32 12.05L76.32 12.05Q75.99 10.89 75.73 10.08L75.73 10.08L75.73 10.08Q75.15 10.49 73.23 10.46L73.23 10.46L73.23 10.46Q72.98 10.46 72.80 10.46L72.80 10.46L72.80 10.46Q72.03 12.00 71.30 12.82L71.30 12.82L71.30 12.82Q71.24 12.89 71.18 12.96L71.18 12.96L71.18 12.96Q71.00 13.17 71.00 13.16ZM73.34 9.51L73.34 9.51L74.69 9.54L74.69 9.54Q75.11 9.54 75.55 9.51L75.55 9.51L75.55 9.51Q75.24 8.51 74.61 6.45L74.61 6.45L74.61 6.45Q73.94 8.00 73.24 9.53L73.24 9.53L73.24 9.53Q73.32 9.51 73.34 9.51ZM81.04 4.25L84.35 4.25L84.35 4.25Q87.51 4.25 87.51 6.30L87.51 6.30L87.51 6.30Q87.51 7.30 86.66 8.16L86.66 8.16L86.66 8.16Q85.99 8.84 84.92 9.35L84.92 9.35L84.92 9.35Q85.46 9.56 85.98 10.14L85.98 10.14L85.98 10.14Q86.12 10.30 86.28 10.47L86.28 10.47L88.05 12.44L88.05 12.44Q88.52 12.97 88.73 13.07L88.73 13.07L88.73 13.07Q88.94 13.17 89.07 13.17L89.07 13.17L89.07 13.17Q89.39 13.17 89.73 12.95L89.73 12.95L89.73 12.95Q88.91 14.12 87.69 14.12L87.69 14.12L87.69 14.12Q87.38 14.12 87.08 13.77L87.08 13.77L87.08 13.77Q87.01 13.68 86.93 13.59L86.93 13.59L85.10 11.57L85.10 11.57Q84.71 11.14 84.44 10.85L84.44 10.85L84.44 10.85Q84.16 10.56 83.90 10.38L83.90 10.38L83.90 10.38Q83.39 10.05 82.52 10.05L82.52 10.05L82.52 11.43L82.52 11.43Q82.52 12.10 82.46 12.33L82.46 12.33L82.46 12.33Q82.37 12.66 82.03 13.15L82.03 13.15L84.22 13.15L84.22 13.15Q84.13 13.17 83.94 13.34L83.94 13.34L83.94 13.34Q83.74 13.51 83.60 13.63L83.60 13.63L83.60 13.63Q83.47 13.75 83.34 13.85L83.34 13.85L83.34 13.85Q83.03 14.08 82.89 14.08L82.89 14.08L80.64 14.08L80.64 14.08Q81.19 13.48 81.19 12.45L81.19 12.45L81.19 5.17L79.71 5.17L79.97 4.96L79.97 4.96Q80.85 4.25 81.04 4.25L81.04 4.25ZM86.18 7.29L86.18 7.29L86.18 7.29Q86.18 6.71 85.93 6.30L85.93 6.30L85.93 6.30Q85.67 5.90 85.27 5.65L85.27 5.65L85.27 5.65Q84.52 5.17 83.36 5.17L83.36 5.17L82.52 5.17L82.52 9.09L83.58 9.09L83.58 9.09Q84.81 9.09 85.39 8.78L85.39 8.78L85.39 8.78Q86.18 8.37 86.18 7.29ZM97.92 5.17L96.91 5.17L96.91 5.17Q96.06 6.09 93.86 8.14L93.86 8.14L93.86 8.14Q97.88 12.11 98.72 12.70L98.72 12.70L98.72 12.70Q99.37 13.17 99.98 13.17L99.98 13.17L99.98 13.17Q100.30 13.17 101.01 12.84L101.01 12.84L101.01 12.84Q100.63 13.21 100.33 13.41L100.33 13.41L100.33 13.41Q100.03 13.60 99.83 13.72L99.83 13.72L99.83 13.72Q99.62 13.83 99.40 13.92L99.40 13.92L99.40 13.92Q98.56 14.26 97.97 14.01L97.97 14.01L97.97 14.01Q97.53 13.82 97.17 13.50L97.17 13.50L97.17 13.50Q96.80 13.17 96.57 12.97L96.57 12.97L96.57 12.97Q96.34 12.76 96.02 12.47L96.02 12.47L96.02 12.47Q95.70 12.18 95.35 11.87L95.35 11.87L95.35 11.87Q94.70 11.26 93.96 10.56L93.96 10.56L93.96 10.56Q93.23 9.86 92.44 9.11L92.44 9.11L92.44 9.11Q95.74 5.95 96.41 5.17L96.41 5.17L95.22 5.17L95.22 5.17Q95.69 4.75 96.08 4.50L96.08 4.50L96.08 4.50Q96.46 4.25 96.54 4.25L96.54 4.25L99.26 4.25L99.26 4.25Q99.13 4.27 98.81 4.56L98.81 4.56L98.81 4.56Q98.49 4.85 98.37 4.95L98.37 4.95L98.37 4.95Q98.08 5.17 97.92 5.17L97.92 5.17ZM92.67 14.08L90.36 14.08L90.36 14.08Q90.97 13.45 90.97 11.70L90.97 11.70L90.97 5.17L89.69 5.17L89.96 4.96L89.96 4.96Q90.83 4.25 91.02 4.25L91.02 4.25L94.14 4.25L94.14 4.25Q94.06 4.25 93.69 4.57L93.69 4.57L93.69 4.57Q93.32 4.89 93.13 5.03L93.13 5.03L93.13 5.03Q92.93 5.17 92.81 5.17L92.81 5.17L92.31 5.17L92.31 11.43L92.31 11.43Q92.31 12.08 92.24 12.31L92.24 12.31L92.24 12.31Q92.15 12.67 91.81 13.15L91.81 13.15L94.01 13.15L94.01 13.15Q93.91 13.17 93.58 13.45L93.58 13.45L93.58 13.45Q93.26 13.74 93.12 13.84L93.12 13.84L93.12 13.84Q92.81 14.08 92.67 14.08L92.67 14.08Z"></path></g><!----><!----></svg>